<?xml version="1.0" encoding="UTF-8"?><svg id="_レイヤー_1" xmlns="http://www.w3.org/2000/svg" viewBox="0 0 100 70"><defs><style>.cls-1{fill:#fff;}.cls-2{fill:#fffff4;}.cls-3{fill:#f7931e;}.cls-4{fill:#fbb03b;}.cls-5{fill:#42210b;}</style></defs><path class="cls-2" d="M24.33,39.07c-.53-.71-1.02-1.45-1.45-2.22-.18-.33-.35-.67-.54-.99-.02-.07-.04-.14-.06-.21.08-.14.12-.3.12-.5,0-.18.04-.36.1-.52.44-.38.87-.77,1.28-1.18.45-.45,1.07-.95,1.35-1.52.27-.55.1-1.02-.25-1.41-.08-.32-.25-.63-.51-.96-.79-1-1.6-2-2.41-2.99-.1-.12-.58-.55-.58-.73,0,.1.27-.36.34-.45.4-.54.82-1.07,1.26-1.59.78-.94,1.62-1.83,2.49-2.69.83-.8,1.29-1.57.7-2.69-1.01-1.91-2.45-3.69-3.94-5.28,1.53-1.54,2.95-3.17,4.27-4.89.63-.42.48-1.63-.39-1.87-.14-.05-.28-.07-.43-.05-3.5-.19-7.13-.25-10.26,1.57-.24.14-.47.28-.69.43-1.79.81-3.22,2.31-4.58,3.79-1.16,1.26-2.3,2.58-3.17,4.04-4.12,5.96-2.88,14.36,3.03,18.68,1.77,1.29,3.8,2.14,5.85,2.86.07.02.14.05.21.07,2.34,1.15,4.8,2.03,7.34,2.62.4.09.75-.14.88-.47.2-.22.27-.53.03-.85Z"/><path class="cls-5" d="M27.83,6.15C17.41,3.96,5.13,10.16,3.5,21.67s11.66,18.94,21.22,19.66c1.24.09,1.24-1.84,0-1.94-8.13-.61-19.51-6.73-19.42-16.16.05-4.85,3.94-9.45,7.47-12.39,4.23-3.52,9.33-3.91,14.54-2.82,1.22.26,1.74-1.61.51-1.87h0Z"/><path class="cls-5" d="M26.83,6.58c-1.58,2.06-3.26,3.91-5.12,5.7-.39.38-.34.98,0,1.37.66.74,3.04,3.33,3.24,4.65.24,1.59-1.22,2.93-1.98,4.07-.67,1.01-2.54,2.41-2.52,3.74.01.83.6,1.32,1.07,1.95,2.47,3.33,3.23,2.88-.02,6.3-.86.9.51,2.27,1.37,1.37,1.18-1.24,2.36-2.47,3.54-3.71.38-.4.35-.97,0-1.37-.7-.79-2.72-2.32-3.01-3.39-.93-3.39,2.07-3.9,3.29-5.96.67-1.14.72-1.12.64-2.38-.14-1.99-3.19-3.84-3.25-5.52s3.42-4.52,4.43-5.84c.76-.99-.92-1.95-1.67-.98h0Z"/><path class="cls-5" d="M21.34,35.93c.86,1.59,1.75,3.16,2.68,4.71.64,1.07,2.31.1,1.67-.98-.92-1.55-1.81-3.12-2.68-4.71-.59-1.1-2.27-.12-1.67.98h0Z"/><path class="cls-1" d="M87.14,40.42c-1.54-3.1-3.42-6.22-5.91-8.63-1.83-1.77-3.88-3.3-6.04-4.64-2.73-1.69-5.67-3.07-8.81-3.76-3.13-.69-6.47-.65-9.48.44-3.77,1.36-4.09,2.9-7.89,4.17-6,2-6-2-11-2-10.63,0-7,21-1,28,3.05,3.56,13.25,10.6,17.58,12.41,4.06,1.7,8.68,1.83,12.95.77,4.27-1.06,8.2-3.28,11.61-6.06,3.11-2.53,5.86-5.61,7.47-9.29,1.61-3.67,1.97-8,.42-11.7"/><path class="cls-3" d="M78.23,48.44c.48-2.62-.63-5.03-2.2-7.03-1.38-1.76-3.2-3.48-5.35-4.22-.12-.07-.24-.14-.36-.2-1.75-.91-3.94-1.11-5.86-.7-3.96.84-7.96,3.83-9.56,7.66-1,2.39-.65,4.92.73,7.03,1.26,1.93,3.4,3.13,5.51,3.89,4.27,1.55,8.94,2.12,13.01-.37,2.17-1.33,3.62-3.58,4.08-6.07Z"/><path class="cls-4" d="M66.27,44.54c-.32-.79-1.01-1.14-1.82-1.19-.83-.33-1.77-.17-2.58.24-.68.1-1.31.4-1.77.96-.14.17-.26.36-.36.56-.35.62-.43,1.36-.09,2.04.06.11.12.22.19.31.07.1.14.2.22.29.25.26.56.45.89.57.4.16.83.22,1.26.17.51-.03,1.02-.15,1.47-.36.25-.05.49-.13.71-.24.23-.1.46-.22.67-.36.93-.62,1.65-1.86,1.19-2.98Z"/><path class="cls-5" d="M87.97,39.93c-5.6-10.86-19.85-22.46-32.76-16.44-2.91,1.36-5.51,4.15-8.95,4.1-2.57-.04-4.48-2.1-7.01-2.46-3.38-.49-6.26,1.1-7.73,4.14-3.41,7.05-.42,18.23,3.91,24.27,2.76,3.84,7.17,6.7,11.04,9.29,4.98,3.34,9.97,6.12,16.15,5.99,13.69-.29,30.32-14.23,25.34-28.94-.4-1.17-2.27-.67-1.87.51,3.27,9.66-3.67,17.99-11.5,22.75-7.24,4.4-15.55,4.94-22.93.68-9.42-5.45-16.92-11.41-18.97-22.53-.73-3.98-1.56-11.32,2.75-13.72,3.98-2.22,8,2.52,12.3,1.77,2.34-.41,4.16-1.66,6.13-2.86,4.33-2.65,8.84-3.17,13.78-1.75,8.39,2.4,14.73,8.62,18.63,16.18.57,1.11,2.24.13,1.67-.98h0Z"/><path class="cls-5" d="M59.46,52.96c-10.87-8.54,6.87-21.05,15.32-11.69,4.89,5.42,1.98,11.34-4.2,13.33-4.17,1.34-7.69.54-11.31-1.79-1.05-.68-2.02,1-.98,1.67,5.59,3.6,12.51,3.86,17.91-.56,4.98-4.08,3.38-11.01-1-14.95-10.45-9.38-29.65,5.5-17.11,15.35.97.76,2.35-.6,1.37-1.37Z"/><path class="cls-2" d="M67.26,10.81c-1.12-1.53-2.59-2.86-4.13-3.96-3.04-2.15-6.63-3.54-10.35-3.86-4.57-.39-9.12.73-13.02,3.13-.78.15-1.17,1.45-.26,1.97.8.46,1.6.92,2.4,1.39.38.22.75.43,1.13.65.13.07.42.32.56.33-.86,1.54-1.5,3.25-2.33,4.82-.19.37-.1.97.26,1.22l6.12,4.24c-.22.94-.54,1.85-.98,2.73-.51,1-.92,2.11.33,2.77,1.08.57,2.31.95,3.47,1.33.58.19,1.16.38,1.75.54.37.1.82.17,1.14.4-.24.58-.47,1.16-.71,1.75-.53,1.31-1.22,2.71.54,3.32,1.25.43,2.52,1.05,3.78.36,1.37-.75,2.66-1.73,3.96-2.6,2.2-1.46,4.06-3.07,5.41-5.34.85-1.04,1.57-2.2,2.01-3.46.65-1.89.83-4.01.77-6-.06-2.07-.64-4.05-1.87-5.73Z"/><path class="cls-5" d="M38.96,7.59c8.08-5.09,21.84-5.88,27.34,3.72s-3.31,18.02-10.83,22.21c-1.09.61-.11,2.28.98,1.67,8.55-4.76,17.35-14.59,11.52-24.86S46.94.27,37.98,5.91c-1.05.66-.08,2.34.98,1.67h0Z"/><path class="cls-5" d="M37.65,8.1c2.26,1.26,3.96,1.48,3.45,4.17-.25,1.28-1.28,2.31-1.47,3.65-.07.47.06.82.44,1.09,1.24.88,3.43,1.18,4.43,2.35,2.88,3.39-.4,3.53.3,6.14.33,1.23,1.67,1.44,2.77,1.87l3.35,1.33c.44,1.12.26,2.18-.53,3.17.05.35-.21.71-.07,1.06.64,1.61,3.69,1.9,5.05,2.22,1.21.29,1.73-1.58.51-1.87-3.06-.72-3.37-1.51-2.09-4.6.22-.52-.24-1.02-.68-1.19-3-1.19-5.78-1.38-5.51-4.99.08-1.04.63-1.75.24-2.76-.51-1.32-2.54-2.21-3.63-2.8-.42-.23-2.51-.89-2.67-1.26-.14-.33,2.34-4.75,2.51-5.1.22-.46.14-1.05-.35-1.32-1.69-.94-3.38-1.88-5.06-2.82-1.09-.61-2.07,1.06-.98,1.67h0Z"/><path class="cls-5" d="M51.99,10.29s.02.06.03.09c.03.09.04.15.1.25.1.15.2.24.35.35.05.04.1.08.16.12l.49-1.8-.54-.06c-.23-.03-.53.13-.68.28-.17.17-.29.44-.28.68s.09.51.28.68l.2.15c.15.09.31.13.49.13l.54.06.26-.03c.13-.03.24-.09.33-.17.16-.12.3-.3.35-.5.04-.17.04-.34,0-.51-.06-.26-.25-.43-.44-.58l-.16-.12.44.58-.03-.11c-.08-.24-.23-.45-.44-.58s-.51-.17-.75-.1-.46.22-.58.44-.18.5-.1.75h0Z"/><path class="cls-5" d="M60.31,10.18c.14-.17.29-.31.45-.45.17-.16.29-.45.28-.68,0-.22-.07-.41-.21-.59-.12-.16-.3-.3-.5-.35-.24-.05-.54-.05-.75.1-.11.08-.22.16-.32.24-.07.05-.1.06-.2.15-.18.18-.28.43-.28.69,0,.03,0,.05,0,.08v.22c0,.48.37.89.84.95s.96-.22,1.06-.69l.04-.21c.05-.26.04-.52-.1-.75-.12-.2-.35-.39-.58-.44-.25-.06-.53-.04-.75.1-.2.13-.39.33-.44.58l-.04.21,1.9.26v-.3c-.16.28-.32.56-.48.84l.33-.24-1.17-1.52c-.16.15-.31.29-.45.45-.17.2-.28.41-.28.68,0,.24.11.52.28.68s.43.3.68.28c.24-.01.52-.09.68-.28h0Z"/><path class="cls-5" d="M55.78,11.87c-.9,1.3-.95,3.02-.25,4.42.63,1.27,2.22,2.44,3.68,1.81s1.39-2.62.94-3.88c-.53-1.5-1.71-2.76-3.36-2.88-1.24-.09-1.24,1.84,0,1.94,1.06.08,2.3,2.99,1.44,3.03-.6.03-1.07-.97-1.18-1.43-.18-.73-.03-1.42.4-2.03.71-1.03-.97-2-1.67-.98h0Z"/></svg>