<?xml version="1.0" encoding="UTF-8"?><svg id="_レイヤー_1" xmlns="http://www.w3.org/2000/svg" viewBox="0 0 100 70"><defs><style>.cls-1{fill:none;}.cls-2{fill:#ffd400;}.cls-3{fill:#fbb03b;}.cls-4{fill:#42210b;}</style></defs><path class="cls-1" d="M75.22,43.24c-.32.83-.67,1.64-1.06,2.43.09-.17.18-.34.27-.52.26-.54.48-1.03.77-1.49-.02-.13-.01-.27.01-.42Z"/><path class="cls-2" d="M75.26,43.05c.39-1.41.88-2.77,1.13-4.22.24-1.39.35-2.81.32-4.22-.06-2.81-.57-5.6-1.46-8.26-1.59-4.75-4.2-9.05-7.04-13.13-.33-.48-.57-1.05-1.18-1.14-.6-.09-1.24-.04-1.84-.03-1.4.01-2.8.09-4.2.21-2.75.23-5.49.63-8.22,1.08-5.45.9-10.91,1.83-16.31,3.01-4.44.97-9.1,1.91-13.13,4.06,0,.22-.01.44-.02.67-.02.7-.07,1.39-.08,2.08-.03,1.38-.06,2.75.02,4.12.02.33.15.79.09,1.11,0,.04-.01.07-.01.1.51.11,1.05.12,1.57.26,1.18.32,2.23.93,3.03,1.86,1.55,1.78,1.65,4.63-.01,6.37-1.15,1.21-2.75,1.7-4.38,1.83-.11,1.04-.18,2.09-.18,3.14,0,1.2.16,2.4.18,3.6.89.08,1.78.47,2.6.79,1.12.45,2.24.88,3.36,1.31,2.24.86,4.49,1.71,6.75,2.53,8.02,2.9,16.21,5.38,24.51,7.37.58.14.92.31,1.42-.04.35-.24.67-.53,1-.8.85-.68,1.69-1.36,2.54-2.04,1.38-1.11,2.74-2.23,4.03-3.44,1.26-1.18,2.4-2.47,3.4-3.89.38-.55.73-1.1,1.05-1.68.39-.79.74-1.6,1.06-2.43.01-.06.02-.12.04-.19ZM42.23,30.99c-.09.24-.22.46-.39.65-.5.56-1.36.72-1.97.22-.51-.42-.68-1.07-.51-1.7.04-.17.1-.34.18-.5.14-.44.42-.83.81-1.08.67-.44,1.41-.22,1.79.47.12.22.19.46.23.71.11.38.08.8-.09,1.16-.01.03-.03.05-.04.08ZM48.47,41.22c-.99.86-2.35,1.1-3.6.77-2.4-.65-4.37-3.75-2.86-6.06.52-.8,1.59-.27,1.79.48.31,1.22.33,2.65,1.84,2.99,1.52.34,2.02-1.64,2.77-2.52.78-.93,2.37-.33,2.21.92-.15,1.26-1.21,2.61-2.15,3.43ZM54.81,32.55s-.03.05-.04.08c-.09.24-.22.46-.39.65-.5.56-1.36.72-1.97.22-.51-.42-.68-1.07-.51-1.7.04-.17.1-.34.18-.5.14-.44.42-.83.81-1.08.67-.44,1.41-.22,1.79.47.12.22.19.46.23.71.11.38.08.8-.09,1.16ZM62.1,25.89c-1.35.41-2.45-.14-3.62-.66-1.93-.6-3.52-2.32-3.47-4.46.07-3,3.64-4.52,6.23-3.9,2.75.65,4.62,3.67,3.59,6.41-.46,1.21-1.49,2.23-2.73,2.61ZM69.35,46.37c-.89,1.45-2.52,2.56-4.28,2.19-.83-.18-1.65-.66-2.13-1.37-.55-.2-.97-.78-1.2-1.37-.36-.9-.32-1.98-.09-2.9.47-1.84,1.88-3.56,3.85-3.84,1.61-.22,3.31.61,4.17,1.98,1.04,1.66.66,3.72-.32,5.31Z"/><path class="cls-2" d="M41.54,30.71s0-.02,0-.03c0,.02,0,.03,0,.03Z"/><path class="cls-2" d="M54.08,32.35s0-.02,0-.03c0,.02,0,.03,0,.03Z"/><path class="cls-3" d="M60.98,23.73c.67.03,1.25-.48,1.55-1.04.72-1.38-.31-3.1-1.74-3.45-1.22-.3-3.63.34-3.29,2,.27,1.32,1.61,1.82,2.78,2.38.23.06.46.1.7.11Z"/><path class="cls-3" d="M67.84,42.37c-.73-1.28-2.38-1.28-3.29-.23-.51.59-.8,1.39-.79,2.16,0,.23.04.45.1.66.22.18.4.45.57.68.37.51.9.9,1.56.78,1.49-.27,2.58-2.78,1.85-4.06Z"/><path class="cls-3" d="M25.14,35.1c-.01.2-.03.4-.07.61.58-.25,1.05-.65,1.25-1.26.49-1.52-.67-2.51-1.95-2.97,0,0,0,0,0,0,.22.39.38.81.5,1.24.23.78.32,1.58.27,2.39Z"/><path class="cls-4" d="M79.44,35.94c.09-2.76-.23-5.52-.93-8.19-1.39-5.3-4.05-10.11-7.09-14.63-.71-1.05-1.41-2.46-2.47-3.19-1.18-.82-2.94-.58-4.3-.56-3.03.05-6.04.37-9.04.8-5.9.85-11.8,1.93-17.64,3.14-3.26.68-6.5,1.45-9.69,2.38-2.24.65-5.23,1.3-6.48,3.47-.82.64-.89,2.23-1.02,3.18-.16,1.16-.21,2.33-.21,3.5,0,1.17-.12,2.55.25,3.67.29.9.97,1.36,1.81,1.57.03.31.17.6.33.95.34.74.53,1.5.55,2.32.02.62-.09,1.19-.25,1.74-.27.02-.53.02-.76,0-.75-.03-1.42.39-1.54,1.18-.22,1.54-.35,3.09-.36,4.64,0,1.57-.02,3.17.43,4.69.19.64.85.86,1.44.75.58.6,1.38.95,2.14,1.31,1.09.51,2.21.95,3.32,1.41,2.12.88,4.25,1.71,6.41,2.5,4.3,1.58,8.64,3.04,13.03,4.36,4.3,1.3,8.63,2.49,13,3.53,1.12.27,2.13.32,3.14-.31.98-.61,1.85-1.43,2.75-2.15,1.54-1.24,3.1-2.47,4.57-3.8,1.57-1.41,3.07-2.92,4.32-4.63.65-.89,1.22-1.86,1.7-2.85.41-.85.83-1.78.76-2.73,1.34-2.34,1.76-5.41,1.84-8.07ZM23.32,28.52c.13.09,0,.22,0,0h0ZM24.37,31.47c1.28.46,2.45,1.46,1.95,2.97-.2.61-.67,1.01-1.25,1.26.03-.21.05-.41.07-.61.05-.81-.04-1.61-.27-2.39-.13-.43-.28-.85-.5-1.24,0,0,0,0,0,0ZM74.43,45.14c-.09.18-.18.35-.27.52-.32.58-.67,1.14-1.05,1.68-.99,1.41-2.14,2.7-3.4,3.89-1.29,1.21-2.65,2.33-4.03,3.44-.85.68-1.69,1.36-2.54,2.04-.33.27-.65.55-1,.8-.5.35-.84.17-1.42.04-8.3-1.98-16.48-4.46-24.51-7.37-2.26-.82-4.5-1.67-6.75-2.53-1.12-.43-2.24-.87-3.36-1.31-.81-.33-1.71-.72-2.6-.79-.02-1.2-.18-2.39-.18-3.6,0-1.05.07-2.1.18-3.14,1.62-.13,3.22-.62,4.38-1.83,1.66-1.74,1.56-4.58.01-6.37-.8-.93-1.85-1.54-3.03-1.86-.52-.14-1.05-.15-1.57-.26,0-.03,0-.06.01-.1.06-.32-.07-.78-.09-1.11-.09-1.38-.06-2.74-.02-4.12.02-.7.07-1.39.08-2.08,0-.23.02-.45.02-.67,4.03-2.15,8.7-3.09,13.13-4.06,5.4-1.18,10.86-2.11,16.31-3.01,2.73-.45,5.46-.85,8.22-1.08,1.4-.12,2.8-.2,4.2-.21.6,0,1.24-.05,1.84.03.61.09.85.66,1.18,1.14,2.85,4.09,5.45,8.39,7.04,13.13.89,2.66,1.39,5.45,1.46,8.26.03,1.41-.08,2.83-.32,4.22-.25,1.45-.73,2.81-1.13,4.22-.02.06-.03.13-.04.19-.02.15-.03.29-.01.42-.3.45-.51.95-.77,1.49Z"/><path class="cls-4" d="M61.24,16.87c-2.6-.61-6.16.9-6.23,3.9-.05,2.14,1.54,3.86,3.47,4.46,1.18.52,2.27,1.08,3.62.66,1.24-.38,2.27-1.4,2.73-2.61,1.03-2.74-.83-5.76-3.59-6.41ZM57.51,21.24c-.34-1.66,2.07-2.3,3.29-2,1.42.35,2.46,2.07,1.74,3.45-.29.56-.88,1.07-1.55,1.04-.24-.01-.47-.05-.7-.11-1.17-.56-2.51-1.07-2.78-2.38Z"/><path class="cls-4" d="M65.51,39.08c-1.97.27-3.39,2-3.85,3.84-.24.93-.27,2,.09,2.9.23.59.66,1.17,1.2,1.37.48.71,1.3,1.19,2.13,1.37,1.76.37,3.39-.74,4.28-2.19.98-1.59,1.37-3.66.32-5.31-.86-1.37-2.56-2.2-4.17-1.98ZM65.99,46.42c-.66.12-1.19-.27-1.56-.78-.17-.23-.35-.5-.57-.68-.06-.21-.1-.43-.1-.66,0-.77.29-1.58.79-2.16.91-1.05,2.56-1.05,3.29.23.73,1.28-.35,3.79-1.85,4.06Z"/><path class="cls-4" d="M42.36,29.76c-.04-.25-.11-.49-.23-.71-.37-.69-1.11-.91-1.79-.47-.38.25-.66.65-.81,1.08-.08.16-.14.34-.18.5-.17.63,0,1.28.51,1.7.6.5,1.47.34,1.97-.22.17-.19.3-.41.39-.65.01-.03.03-.05.04-.08.17-.36.2-.78.09-1.16ZM41.54,30.71s0-.02,0-.03c0,.01,0,.02,0,.03Z"/><path class="cls-4" d="M54.68,30.69c-.37-.69-1.11-.91-1.79-.47-.38.25-.66.65-.81,1.08-.08.16-.14.34-.18.5-.17.63,0,1.28.51,1.7.6.5,1.47.34,1.97-.22.17-.19.3-.41.39-.65.01-.03.03-.05.04-.08.17-.36.2-.78.09-1.16-.04-.25-.11-.49-.23-.71ZM54.08,32.35s0-.02,0-.03c0,.01,0,.02,0,.03Z"/><path class="cls-4" d="M48.4,36.87c-.75.88-1.25,2.86-2.77,2.52-1.51-.34-1.52-1.77-1.84-2.99-.19-.74-1.26-1.27-1.79-.48-1.51,2.3.46,5.41,2.86,6.06,1.25.34,2.61.09,3.6-.77.94-.82,2-2.17,2.15-3.43.15-1.25-1.43-1.85-2.21-.92Z"/></svg>