<?xml version="1.0" encoding="UTF-8"?><svg id="_レイヤー_1" xmlns="http://www.w3.org/2000/svg" viewBox="0 0 100 70"><defs><style>.cls-1{opacity:.74;}.cls-1,.cls-2{fill:#fff;}.cls-3{fill:#ff877d;}.cls-4{fill:#42210b;}</style></defs><path class="cls-4" d="M31.5,58.15c-1.17,0-2.28-.12-3.31-.36-2.59-.6-4.95-1.99-7.03-4.14-1.84-1.9-3.39-4.34-4.49-7.05-.83-2.06-1.39-4.05-1.65-5.92,0-.05,0-.09.02-.13.12-.21.21-.44.31-.77.25-.81.5-1.62.76-2.43.49-1.54,1.3-2.88,2.02-3.99,1.64-2.53,3.95-4.56,6.2-6.38,4.59-3.71,9.95-6.83,15.09-8.8,2.84-1.09,5.77-1.95,8.7-2.56,1.51-.32,3.02-.57,4.25-.71,1.19-.14,2.21-.2,3.12-.2.66,0,1.27.04,1.81.11,2.65.35,5.23,1.38,7.73,2.37.64.25,1.27.5,1.89.74l.86.32s.1.05.12.09c.61,1.01,1,1.86,1.25,2.76.51,1.82.56,3.67.14,5.37-.82,3.36-3.51,6.24-6.86,7.33-.37.12-.75.21-1.13.29-1.3.29-2.43.54-2.69,2.05-.24,1.43.49,2.97,1.95,4.1,1.21.94,2.79,1.49,4.97,1.73.29.03.59.06.88.09.72.07,1.46.14,2.18.28.88.17,1.75.44,2.58.71l.69.21c1.72.52,3.55.8,5.27.8,1.13,0,2.22-.12,3.24-.35.02,0,.03,0,.05,0,.07,0,.14.04.18.1.05.08.04.17-.02.24-.32.4-.63.8-.94,1.2-.64.84-1.31,1.71-2.09,2.49-1.25,1.24-2.63,2.25-4.1,3.01-2.18,1.12-4.69,1.68-7.44,1.68-1.21,0-2.48-.11-3.76-.33-.49-.08-.97-.17-1.46-.26-1.76-.32-3.58-.64-5.4-.78-1.03-.08-2.07-.11-3.1-.11-1.31,0-2.64.06-3.95.19-2.35.22-4.74.65-7.13,1.26-.68.18-1.36.36-2.04.55-1.61.44-3.28.9-4.96,1.21-1.25.23-2.46.35-3.57.35-1.19,0-2.33-.13-3.39-.39-1.08-.27-2.08-.67-2.97-1.2-.53-.31-.99-.7-1.44-1.08-.32-.27-.63-.54-.98-.78-.03,0-.06,0-.08,0-.11,0-.17.04-.21.1-.03.04-.05.1-.03.16.6,1.68,2.48,2.76,3.95,3.38,1.6.67,3.43,1.02,5.3,1.02.16,0,.32,0,.48,0,2.94-.09,5.84-.87,8.64-1.63,1.94-.52,3.96-1.07,5.97-1.38,2.01-.31,4.11-.47,6.23-.47.52,0,1.03,0,1.54.03,2.59.09,5.14.53,7.53.98,1.77.33,3.38.49,4.93.49,2.56,0,4.83-.44,6.95-1.33,1.74-.74,3.37-1.79,4.85-3.13,1.92-1.75,3.23-3.43,3.9-5.02.1-.23.02-.48-.09-.63-.04-.05-.05-.12-.03-.19s.07-.11.13-.14c.55-.2,1.08-.44,1.57-.7.03-.02.07-.03.1-.03.04,0,.08.01.12.04.06.04.1.12.09.2-.01.11-.03.22-.04.34-.12.79-.21,1.57-.31,2.35l-.07.56c-1.01,2.31-2.36,4.19-4.02,5.64-3.16,2.77-7.46,4.17-12.79,4.17h0c-1.78,0-3.66-.16-5.6-.48-.96-.16-1.92-.34-2.87-.52-.79-.15-1.58-.3-2.37-.44-.06-.01-.12-.02-.18-.02-.05,0-.1,0-.15.01-.98-.16-1.94-.24-2.93-.24-3.57,0-7.2,1.02-10.71,2.01-1.07.3-2.14.6-3.2.87-1.93.49-4.46,1.06-6.99,1.06ZM45.21,34.25c-.05,0-.11,0-.15.02-1.64.39-3.26.95-4.81,1.68l-.27.12c-1.34.63-3,1.4-3.87,2.55-.07.1-.1.21-.07.33-.28,1.2,1.3,2.43,2.23,2.78.55.21,1.18.31,1.86.31.9,0,1.84-.19,2.64-.55.97-.43,2.26-1.26,2.87-2.8.54-1.36.45-2.78.28-3.99-.04-.29-.38-.47-.69-.47ZM32.52,33.38c-.25,0-.51.07-.73.21-.55.33-.85,1.06-.68,1.64.03.09.06.18.11.27.07.2.17.35.31.48.25.23.55.35.87.35.25,0,.5-.07.71-.22.35-.18.58-.46.68-.79.09-.29.06-.61-.07-.91-.12-.5-.47-.86-.88-.98-.1-.03-.21-.04-.32-.04ZM45,29.07c-.25,0-.51.07-.73.21-.55.33-.85,1.06-.68,1.64.03.09.06.18.11.27.07.2.17.35.31.48.25.23.55.35.87.35.25,0,.5-.08.71-.22.35-.18.58-.46.68-.79.09-.29.06-.61-.07-.91-.12-.5-.47-.86-.88-.98-.1-.03-.21-.04-.32-.04ZM55.86,19.07c-.57,0-2.49.08-3.49,1.18-.42.46-.6,1.03-.54,1.7.09.96.91,1.8,1.67,2.52.34.32.67.59,1.03.84.29.4.51.65.76.86.71.61,1.67.89,2.6,1.17l.34.1c.56.17,1.14.34,1.69.34.35,0,.66-.07.94-.21.69-.35,1.24-1.04,1.7-2.16.74-1.77,1.28-3.71-.29-4.62-.68-.4-1.49-.65-2.27-.9l-.42-.13c-1.23-.4-2.31-.62-3.32-.68-.13,0-.26-.01-.39-.01Z"/><path class="cls-4" d="M59.92,28.21c-.62,0-1.23-.18-1.81-.36l-.34-.1c-.97-.29-1.97-.59-2.75-1.25-.27-.23-.52-.51-.78-.89-.32-.21-.67-.49-1.02-.83-.82-.77-1.7-1.69-1.8-2.79-.07-.8.14-1.48.64-2.03,1.11-1.22,3.19-1.31,3.8-1.31.14,0,.28,0,.42.01,1.04.06,2.16.29,3.43.7l.42.13c.81.26,1.64.52,2.36.94,2.09,1.22.99,3.87.46,5.14-.51,1.22-1.11,1.97-1.9,2.37-.34.17-.71.26-1.13.26h0Z"/><path class="cls-4" d="M59.92,28.21c-.62,0-1.23-.18-1.81-.36l-.34-.1c-.97-.29-1.97-.59-2.75-1.25-.27-.23-.52-.51-.78-.89-.32-.21-.67-.49-1.02-.83-.82-.77-1.7-1.69-1.8-2.79-.07-.8.14-1.48.64-2.03,1.11-1.22,3.19-1.31,3.8-1.31.14,0,.28,0,.42.01,1.04.06,2.16.29,3.43.7l.42.13c.81.26,1.64.52,2.36.94,2.09,1.22.99,3.87.46,5.14-.51,1.22-1.11,1.97-1.9,2.37-.34.17-.71.26-1.13.26h0Z"/><path class="cls-4" d="M83.04,46.25c-.1-.03-.17-.12-.15-.23l.07-.56c.09-.76.18-1.52.3-2.29-.4.2-.82.38-1.26.54-.02,0-.05.01-.07.01-.07,0-.13-.03-.17-.09-.11-.15-.25-.23-.39-.23-.12,0-.23.06-.33.18-.14.16-.28.33-.41.49-.03.04-.07.06-.12.07-1.05.24-2.17.36-3.33.36-1.77,0-3.63-.28-5.4-.82l-.69-.21c-.83-.26-1.68-.53-2.54-.7-.7-.14-1.43-.21-2.14-.27-.3-.03-.59-.06-.89-.09-2.26-.25-3.9-.83-5.18-1.82-1.59-1.24-2.38-2.92-2.11-4.51.3-1.79,1.68-2.1,3.01-2.39.37-.08.74-.17,1.09-.28,3.21-1.04,5.8-3.8,6.58-7.03.4-1.63.35-3.41-.14-5.16-.23-.84-.59-1.64-1.17-2.59l-.81-.31c-.63-.24-1.26-.49-1.9-.74-2.48-.98-5.04-2-7.63-2.35-.52-.07-1.11-.1-1.76-.1-.89,0-1.9.07-3.08.2-1.21.14-2.71.39-4.21.7-2.91.61-5.81,1.46-8.63,2.54-5.1,1.95-10.42,5.06-14.98,8.74-2.22,1.79-4.5,3.8-6.11,6.28-.71,1.09-1.49,2.4-1.97,3.89-.26.81-.51,1.61-.76,2.42-.11.36-.22.62-.35.86-.04.07-.11.11-.18.11-.01,0-.03,0-.04,0-.09-.02-.16-.09-.17-.18-.2-1.42-.23-2.8-.09-4.1.52-4.89,3.72-9.6,9.52-13.99,9.19-6.98,19.98-10.82,30.38-10.82,2.25,0,4.49.18,6.67.54,6.26,1.04,11.72,3.43,15.77,6.92,4.63,3.99,7.42,9.51,7.85,15.56.28,4-.37,8.02-1.84,11.34-.03.08-.11.12-.19.12-.02,0-.04,0-.06,0Z"/><path class="cls-4" d="M83.04,46.25c-.1-.03-.17-.12-.15-.23l.07-.56c.09-.76.18-1.52.3-2.29-.4.2-.82.38-1.26.54-.02,0-.05.01-.07.01-.07,0-.13-.03-.17-.09-.11-.15-.25-.23-.39-.23-.12,0-.23.06-.33.18-.14.16-.28.33-.41.49-.03.04-.07.06-.12.07-1.05.24-2.17.36-3.33.36-1.77,0-3.63-.28-5.4-.82l-.69-.21c-.83-.26-1.68-.53-2.54-.7-.7-.14-1.43-.21-2.14-.27-.3-.03-.59-.06-.89-.09-2.26-.25-3.9-.83-5.18-1.82-1.59-1.24-2.38-2.92-2.11-4.51.3-1.79,1.68-2.1,3.01-2.39.37-.08.74-.17,1.09-.28,3.21-1.04,5.8-3.8,6.58-7.03.4-1.63.35-3.41-.14-5.16-.23-.84-.59-1.64-1.17-2.59l-.81-.31c-.63-.24-1.26-.49-1.9-.74-2.48-.98-5.04-2-7.63-2.35-.52-.07-1.11-.1-1.76-.1-.89,0-1.9.07-3.08.2-1.21.14-2.71.39-4.21.7-2.91.61-5.81,1.46-8.63,2.54-5.1,1.95-10.42,5.06-14.98,8.74-2.22,1.79-4.5,3.8-6.11,6.28-.71,1.09-1.49,2.4-1.97,3.89-.26.81-.51,1.61-.76,2.42-.11.36-.22.62-.35.86-.04.07-.11.11-.18.11-.01,0-.03,0-.04,0-.09-.02-.16-.09-.17-.18-.2-1.42-.23-2.8-.09-4.1.52-4.89,3.72-9.6,9.52-13.99,9.19-6.98,19.98-10.82,30.38-10.82,2.25,0,4.49.18,6.67.54,6.26,1.04,11.72,3.43,15.77,6.92,4.63,3.99,7.42,9.51,7.85,15.56.28,4-.37,8.02-1.84,11.34-.03.08-.11.12-.19.12-.02,0-.04,0-.06,0Z"/><path class="cls-4" d="M40.16,40.5c-.51,0-.96-.08-1.35-.24-.44-.18-.76-.53-1.06-.87l-.08-.09s-.06-.11-.05-.17c0-.06.05-.12.1-.15.14-.08.27-.17.41-.26.18-.11.35-.23.53-.33.7-.41,1.45-.81,2.23-1.17,1.18-.55,2.3-.98,3.43-1.33.02,0,.04,0,.06,0,.05,0,.09.01.13.04.05.04.08.11.08.17-.07,1.97-.8,3.21-2.3,3.93-.62.3-1.4.47-2.13.47h0Z"/><path class="cls-4" d="M30.98,60.66c-3.42-.09-6.61-1.17-9.22-3.12-2.35-1.76-4.35-4.09-5.93-6.92-3.8-6.82-4.45-14.02-1.76-19.75,2.96-6.31,9.14-10.66,13.53-13.37,8.5-5.26,18.21-8.16,27.35-8.16,4.4,0,8.67.66,12.69,1.95,6.47,2.08,11.74,5.7,15.25,10.46,3.77,5.11,5.38,11.94,4.41,18.73-.5,3.53-1.67,6.8-3.39,9.46-1.77,2.76-4.34,4.94-7.41,6.31-3.03,1.35-6.47,2.04-10.24,2.04h0c-2.58,0-5.28-.32-8.03-.96.02.01-.03.02-.09.02-.11,0-.23-.02-.34-.05-1.45-.47-3.02-.69-4.79-.69h-.21c-3.59.04-7.1,1.05-10.49,2.03-3.48,1.01-7.08,2.05-10.8,2.05-.18,0-.35,0-.53,0ZM54.84,12.19c-10.31,0-21.01,3.81-30.13,10.74-5.7,4.32-8.84,8.94-9.35,13.7-.13,1.26-.1,2.61.09,4,.25,1.84.8,3.79,1.62,5.82,1.08,2.66,2.6,5.06,4.4,6.92,2.02,2.09,4.31,3.44,6.82,4.02,1,.23,2.08.35,3.22.35,2.48,0,4.98-.56,6.88-1.05,1.06-.27,2.12-.57,3.19-.87,3.54-1,7.19-2.03,10.82-2.03,1.01,0,2,.08,2.93.24,0-.01.07-.02.15-.02.08,0,.16,0,.25.02.79.14,1.58.29,2.38.44.95.18,1.9.36,2.86.52,1.92.31,3.78.47,5.53.47,5.22,0,9.43-1.37,12.51-4.07,1.61-1.41,2.92-3.24,3.9-5.43,1.44-3.25,2.09-7.21,1.81-11.14-.42-5.94-3.16-11.36-7.7-15.27-4-3.44-9.38-5.8-15.57-6.82-2.15-.36-4.37-.54-6.6-.54Z"/><path class="cls-4" d="M30.82,56.15c-1.92,0-3.81-.36-5.47-1.05-1.54-.64-3.52-1.8-4.18-3.62-.06-.18-.04-.38.08-.54.13-.18.34-.3.56-.3.12,0,.23.04.33.1.35.25.68.52,1,.8.45.38.88.75,1.38,1.04.86.51,1.82.9,2.86,1.15,1.02.25,2.13.38,3.29.38,1.09,0,2.27-.11,3.5-.34,1.66-.3,3.32-.76,4.93-1.2.68-.19,1.36-.38,2.05-.55,2.41-.62,4.83-1.05,7.19-1.28,1.32-.12,2.66-.19,3.99-.19,1.04,0,2.1.04,3.13.12,1.84.14,3.67.46,5.44.78.48.09.97.17,1.45.26,1.26.22,2.5.33,3.69.33,2.69,0,5.13-.55,7.25-1.63,1.43-.73,2.77-1.72,3.99-2.93.76-.76,1.42-1.62,2.06-2.45.31-.41.62-.81.95-1.21.14-.17.28-.34.42-.5.23-.27.48-.33.65-.33.27,0,.55.15.73.41.23.31.28.71.14,1.04-.7,1.64-2.05,3.38-4.01,5.16-1.51,1.37-3.18,2.45-4.97,3.21-2.17.92-4.5,1.37-7.11,1.37h0c-1.57,0-3.21-.16-5.01-.5-2.47-.46-4.9-.88-7.46-.97-.51-.02-1.02-.03-1.53-.03-2.1,0-4.17.16-6.16.46-1.99.31-3.99.85-5.93,1.37-2.83.76-5.75,1.55-8.74,1.64-.16,0-.32,0-.49,0Z"/><path class="cls-4" d="M32.4,36.74c-.42,0-.83-.16-1.16-.46-.18-.17-.32-.38-.41-.62-.04-.08-.09-.2-.13-.32-.23-.77.15-1.69.87-2.12.28-.17.62-.27.95-.27.15,0,.3.02.44.06.56.16,1.02.63,1.15,1.19.17.41.2.83.08,1.22-.13.44-.44.81-.87,1.03-.27.18-.59.27-.93.27h0Z"/><path class="cls-4" d="M44.87,32.43c-.42,0-.83-.16-1.16-.46-.19-.17-.32-.38-.41-.62-.04-.08-.09-.19-.13-.32-.23-.77.15-1.68.87-2.12.28-.17.62-.27.95-.27.15,0,.3.02.44.06.56.16,1.02.63,1.15,1.19.17.41.2.83.08,1.22-.13.44-.44.81-.87,1.03-.27.18-.59.27-.93.27h0Z"/><path class="cls-4" d="M40.11,42.47c-.73,0-1.4-.11-2-.34-1.08-.4-2.83-1.81-2.49-3.18-.05-.15,0-.38.15-.57.93-1.23,2.65-2.04,4.03-2.68l.27-.12c1.58-.74,3.22-1.32,4.89-1.71.08-.02.16-.03.25-.03.48,0,1.03.29,1.11.83.16,1.19.27,2.75-.31,4.21-.53,1.32-1.59,2.36-3.09,3.02-.85.38-1.84.58-2.81.58h0ZM38.15,39.21c.25.28.5.53.82.66.33.14.74.21,1.19.21.66,0,1.39-.16,1.95-.42,1.27-.6,1.92-1.65,2.04-3.27-1.02.33-2.03.73-3.09,1.22-.76.36-1.5.74-2.19,1.15-.17.1-.34.21-.52.32-.07.04-.13.09-.2.13Z"/><path class="cls-3" d="M79.14,51.55c1.72-1.51,3.02-3.41,3.95-5.51.12-.98.23-1.95.37-2.92.02-.11.03-.22.04-.33-.51.28-1.05.52-1.6.72.17.23.24.55.11.83-.81,1.91-2.43,3.7-3.95,5.09-1.45,1.32-3.1,2.41-4.91,3.17-3.85,1.63-7.95,1.61-12,.86-2.5-.46-4.95-.88-7.49-.97-2.58-.09-5.18.04-7.73.44-4.92.76-9.63,2.85-14.64,3.01-1.99.06-4.02-.26-5.87-1.03-1.6-.67-3.45-1.8-4.06-3.5-.13-.35.34-.71.65-.5.83.59,1.52,1.33,2.4,1.85.91.54,1.89.92,2.92,1.18,2.25.56,4.61.46,6.88.04,2.37-.43,4.66-1.16,6.99-1.76,2.35-.61,4.74-1.04,7.16-1.27,2.35-.22,4.73-.25,7.08-.07,2.32.17,4.58.64,6.87,1.04,3.73.64,7.65.42,11.06-1.33,1.5-.77,2.85-1.78,4.05-2.97,1.14-1.14,2.01-2.45,3.02-3.68-2.83.64-5.93.36-8.62-.46-1.08-.33-2.15-.7-3.25-.91-1-.2-2.03-.25-3.04-.37-1.81-.2-3.61-.64-5.07-1.78-1.3-1.01-2.32-2.59-2.03-4.31.36-2.12,2.33-1.98,3.96-2.51,3.25-1.06,5.91-3.85,6.72-7.18.42-1.73.34-3.56-.14-5.27-.28-.99-.72-1.86-1.23-2.7-.29-.11-.58-.22-.87-.33-3.08-1.17-6.29-2.66-9.58-3.1-1.52-.2-3.29-.09-4.89.1-1.26.15-2.79.41-4.23.71-2.95.61-5.85,1.47-8.67,2.55-5.28,2.02-10.62,5.2-15.04,8.77-2.27,1.83-4.55,3.86-6.15,6.33-.81,1.25-1.53,2.52-1.99,3.94-.26.81-.51,1.62-.76,2.42-.1.32-.2.58-.33.81.28,2.02.88,4,1.64,5.87,1.04,2.56,2.52,5,4.45,6.99,1.9,1.97,4.24,3.46,6.92,4.08,3.38.78,6.9.15,10.2-.7,5.51-1.41,11.22-3.63,16.86-2.65.12-.02.26-.02.4,0,1.75.3,3.49.67,5.24.95,6.16,1.01,13.28.68,18.21-3.64ZM56.27,18.87c1.15.07,2.28.33,3.37.69.9.29,1.91.57,2.74,1.05,1.82,1.06,1.03,3.31.38,4.88-.37.89-.91,1.81-1.8,2.27-.94.48-1.97.13-2.91-.16-.99-.3-2.08-.59-2.89-1.27-.29-.25-.53-.54-.74-.85-.36-.25-.71-.54-1.05-.86-.73-.69-1.64-1.6-1.73-2.65-.23-2.52,2.7-3.21,4.64-3.1ZM44.16,29.1c.35-.21.82-.3,1.22-.19.48.14.89.55,1.01,1.04,0,.02,0,.04.01.05.15.33.18.7.08,1.05-.12.41-.41.72-.77.91-.57.37-1.31.34-1.84-.15-.17-.15-.28-.34-.35-.53-.05-.1-.09-.2-.12-.31-.2-.7.16-1.51.77-1.88ZM35.93,38.5c.96-1.27,2.8-2.08,4.22-2.74,1.55-.73,3.18-1.3,4.85-1.7.42-.1,1.03.13,1.1.63.19,1.38.23,2.78-.3,4.1-.54,1.36-1.65,2.32-2.98,2.91-1.38.61-3.21.78-4.65.24-1.01-.38-2.67-1.7-2.36-2.94-.03-.17,0-.34.11-.5ZM31.68,33.41c.35-.21.82-.3,1.22-.19.48.14.89.55,1.01,1.04,0,.02,0,.04.01.05.15.33.18.7.08,1.05-.12.41-.41.72-.77.91-.57.37-1.31.34-1.84-.15-.17-.15-.28-.34-.35-.53-.05-.1-.09-.2-.12-.31-.2-.7.16-1.51.77-1.88Z"/><path class="cls-3" d="M53.36,24.63c.34.32.69.61,1.05.86.21.31.45.6.74.85.8.68,1.89.97,2.89,1.27.94.28,1.97.63,2.91.16.89-.45,1.43-1.38,1.8-2.27.65-1.57,1.44-3.82-.38-4.88-.82-.48-1.83-.76-2.74-1.05-1.09-.36-2.22-.62-3.37-.69-1.94-.11-4.87.58-4.64,3.1.1,1.06,1,1.96,1.73,2.65Z"/><path class="cls-1" d="M53.36,24.63c.34.32.69.61,1.05.86.21.31.45.6.74.85.8.68,1.89.97,2.89,1.27.94.28,1.97.63,2.91.16.89-.45,1.43-1.38,1.8-2.27.65-1.57,1.44-3.82-.38-4.88-.82-.48-1.83-.76-2.74-1.05-1.09-.36-2.22-.62-3.37-.69-1.94-.11-4.87.58-4.64,3.1.1,1.06,1,1.96,1.73,2.65Z"/><path class="cls-3" d="M16.33,37.42c.46-1.43,1.18-2.69,1.99-3.94,1.6-2.47,3.88-4.49,6.15-6.33,4.42-3.57,9.75-6.74,15.04-8.77,2.82-1.08,5.71-1.94,8.67-2.55,1.44-.3,2.97-.56,4.23-.71,1.6-.18,3.37-.3,4.89-.1,3.29.44,6.5,1.93,9.58,3.1.29.11.58.22.87.33.51.84.95,1.71,1.23,2.7.48,1.71.56,3.54.14,5.27-.81,3.33-3.47,6.12-6.72,7.18-1.63.53-3.6.39-3.96,2.51-.29,1.72.73,3.29,2.03,4.31,1.46,1.13,3.27,1.57,5.07,1.78,1.02.11,2.04.17,3.04.37,1.11.22,2.18.59,3.25.91,2.69.82,5.79,1.1,8.62.46.14-.17.27-.33.42-.5.36-.42.81-.27,1.05.07.55-.2,1.08-.43,1.6-.72-.01.11-.03.22-.04.33-.15.98-.26,1.95-.37,2.92,1.56-3.5,2.08-7.56,1.82-11.24-.43-6-3.22-11.5-7.77-15.42-4.38-3.77-10.02-5.94-15.67-6.87-13.06-2.16-26.5,2.35-36.89,10.24-4.44,3.37-8.82,8.06-9.43,13.85-.14,1.35-.1,2.71.09,4.05.13-.23.23-.49.33-.81.25-.81.5-1.62.76-2.42Z"/><path class="cls-1" d="M16.33,37.42c.46-1.43,1.18-2.69,1.99-3.94,1.6-2.47,3.88-4.49,6.15-6.33,4.42-3.57,9.75-6.74,15.04-8.77,2.82-1.08,5.71-1.94,8.67-2.55,1.44-.3,2.97-.56,4.23-.71,1.6-.18,3.37-.3,4.89-.1,3.29.44,6.5,1.93,9.58,3.1.29.11.58.22.87.33.51.84.95,1.71,1.23,2.7.48,1.71.56,3.54.14,5.27-.81,3.33-3.47,6.12-6.72,7.18-1.63.53-3.6.39-3.96,2.51-.29,1.72.73,3.29,2.03,4.31,1.46,1.13,3.27,1.57,5.07,1.78,1.02.11,2.04.17,3.04.37,1.11.22,2.18.59,3.25.91,2.69.82,5.79,1.1,8.62.46.14-.17.27-.33.42-.5.36-.42.81-.27,1.05.07.55-.2,1.08-.43,1.6-.72-.01.11-.03.22-.04.33-.15.98-.26,1.95-.37,2.92,1.56-3.5,2.08-7.56,1.82-11.24-.43-6-3.22-11.5-7.77-15.42-4.38-3.77-10.02-5.94-15.67-6.87-13.06-2.16-26.5,2.35-36.89,10.24-4.44,3.37-8.82,8.06-9.43,13.85-.14,1.35-.1,2.71.09,4.05.13-.23.23-.49.33-.81.25-.81.5-1.62.76-2.42Z"/><path class="cls-2" d="M42.2,39.84c1.63-.78,2.12-2.17,2.18-3.75-1.16.36-2.3.81-3.4,1.32-.75.35-1.49.74-2.21,1.16-.31.18-.62.39-.93.59.32.35.63.72,1.07.9.98.41,2.38.22,3.31-.22Z"/><path class="cls-4" d="M83.73,49.82c1.8-2.8,2.89-6.1,3.36-9.38.92-6.45-.47-13.28-4.37-18.58-3.73-5.06-9.22-8.47-15.15-10.38-13.4-4.31-28.12-1.08-39.86,6.19-5.31,3.28-10.74,7.5-13.45,13.29-2.97,6.34-1.56,13.62,1.75,19.56,1.48,2.65,3.43,5.03,5.87,6.85,2.64,1.97,5.82,2.99,9.1,3.08,7.53.2,14.33-3.99,21.81-4.07,1.72-.02,3.42.17,5.07.7.15.05.29.05.42.03,5.99,1.39,12.52,1.44,18.14-1.07,2.99-1.34,5.54-3.47,7.32-6.23ZM55.69,54.24c-.14-.02-.28-.02-.4,0-5.63-.98-11.34,1.24-16.86,2.65-3.3.84-6.82,1.48-10.2.7-2.69-.62-5.02-2.11-6.92-4.08-1.92-1.99-3.41-4.43-4.45-6.99-.76-1.87-1.36-3.85-1.64-5.87-.19-1.34-.23-2.7-.09-4.05.62-5.79,5-10.48,9.43-13.85,10.39-7.89,23.83-12.4,36.89-10.24,5.65.93,11.29,3.1,15.67,6.87,4.55,3.92,7.35,9.41,7.77,15.42.26,3.68-.27,7.73-1.82,11.24-.93,2.1-2.23,4-3.95,5.51-4.93,4.32-12.05,4.65-18.21,3.64-1.75-.29-3.49-.65-5.24-.95Z"/><path class="cls-4" d="M80.86,43.44c-.14.16-.28.33-.42.5-1,1.23-1.88,2.55-3.02,3.68-1.2,1.19-2.54,2.2-4.05,2.97-3.42,1.75-7.33,1.97-11.06,1.33-2.29-.39-4.55-.86-6.87-1.04-2.36-.17-4.73-.15-7.08.07-2.42.23-4.81.66-7.16,1.27-2.32.6-4.62,1.33-6.99,1.76-2.27.41-4.63.51-6.88-.04-1.02-.25-2.01-.64-2.92-1.18-.88-.52-1.57-1.26-2.4-1.85-.31-.22-.77.15-.65.5.61,1.7,2.47,2.83,4.06,3.5,1.85.77,3.87,1.09,5.87,1.03,5.01-.16,9.72-2.25,14.64-3.01,2.55-.39,5.15-.53,7.73-.44,2.54.09,5,.51,7.49.97,4.05.75,8.15.77,12-.86,1.81-.77,3.46-1.85,4.91-3.17,1.52-1.39,3.14-3.18,3.95-5.09.12-.29.05-.6-.11-.83-.24-.34-.69-.48-1.05-.07Z"/><path class="cls-4" d="M31.03,35.6c.07.2.18.38.35.53.53.49,1.27.53,1.84.15.36-.19.65-.5.77-.91.11-.35.07-.73-.08-1.05,0-.02,0-.04-.01-.05-.12-.49-.52-.9-1.01-1.04-.4-.11-.87-.03-1.22.19-.61.37-.98,1.18-.77,1.88.03.11.07.21.12.31Z"/><path class="cls-4" d="M43.51,31.28c.07.2.18.38.35.53.53.49,1.27.53,1.84.15.36-.19.65-.5.77-.91.11-.35.07-.73-.08-1.05,0-.02,0-.04-.01-.05-.12-.49-.52-.9-1.01-1.04-.4-.11-.87-.03-1.22.19-.61.37-.98,1.18-.77,1.88.03.11.07.21.12.31Z"/><path class="cls-4" d="M38.18,41.93c1.44.54,3.27.38,4.65-.24,1.32-.59,2.44-1.55,2.98-2.91.53-1.32.48-2.72.3-4.1-.07-.49-.68-.72-1.1-.63-1.67.39-3.3.97-4.85,1.7-1.41.66-3.25,1.47-4.22,2.74-.12.15-.14.33-.11.5-.31,1.24,1.35,2.56,2.36,2.94ZM37.83,39.16c.32-.19.62-.4.93-.59.72-.42,1.45-.81,2.21-1.16,1.11-.52,2.24-.96,3.4-1.32-.05,1.58-.54,2.97-2.18,3.75-.93.44-2.33.63-3.31.22-.44-.18-.75-.55-1.07-.9Z"/></svg>