<?xml version="1.0" encoding="UTF-8"?><svg id="_レイヤー_1" xmlns="http://www.w3.org/2000/svg" viewBox="0 0 100 70"><defs><style>.cls-1{fill:#65c8d0;}.cls-2{fill:#ffe68c;}.cls-3{fill:#f1f5f7;}.cls-4{fill:#42210b;}</style></defs><path class="cls-4" d="M74.33,39.67c-.23,0-.46-.08-.65-.23-7.48-5.95-17.22-9.65-28.16-10.69-1.82-.17-3.69-.26-5.55-.26h0c-.76.15-1.54.29-2.36.29-.22,0-.44-.01-.65-.03-.44-.05-.82-.36-.93-.78-.08-.31-.17-.62-.27-.93-.31-.99-.72-1.95-1.22-2.86-.28-.51-.55-.95-.82-1.35-.21-.31-.43-.62-.63-.78-.08.02-.16.03-.24.03-.34,0-.67-.16-.87-.46-.24-.34-.45-.65-.65-.96-.48-.73-.98-1.38-1.48-1.92-.27-.3-.35-.73-.2-1.1.15-.38.51-.63.91-.66,1.39-.09,2.8-.13,4.17-.13,10.42,0,20.2,2.48,28.28,7.17,5.47,3.17,10.16,7.34,13.92,12.4.35.18.59.55.6.94,0,.39-.19.77-.54.96-.78.41-1.47.81-2.11,1.21-.17.11-.36.16-.55.16Z"/><path class="cls-4" d="M83.77,55.69c-.37,0-.78-.1-1.25-.31-1.55-.68-3.13-1.81-4.7-3.37-1.39-1.38-2.56-2.98-3.48-4.76-.09-.05-.15-.09-.2-.15-.64.21-1.3.48-2.01.76-.38.15-.75.3-1.13.45-1.16.44-2.35.84-3.56,1.2-2.28.69-4.68,1.24-7.12,1.66-3.58.6-7.34.91-11.18.91-1.23,0-2.49-.03-3.75-.09-4.94-.25-9.98-.95-15.41-2.17-4.06-.91-9.36-2.21-14.41-4.29-1.27-.52-2.52-1.11-3.71-1.76l-.33-.18c-1.03-.55-2.2-1.18-3.11-2.06-.33-.32-1.11-1.07-.92-2.07.15-.79.85-1.27,1.31-1.59.07-.05.14-.1.2-.14l.17-.13c1.06-.81,2.15-1.64,3.19-2.49l-.79-.58c-.93-.68-1.89-1.39-2.8-2.15-.15-.13-.32-.26-.49-.4-1-.81-2.25-1.81-2.67-3.21-.53-1.78,1.01-3.21,1.93-4.06l.21-.2c.98-.92,2.09-1.77,3.32-2.52,5.27-3.23,11.43-4.24,16.22-4.76,1.06-.12,2.16-.21,3.26-.28.02,0,.04,0,.06,0,.29,0,.57.12.77.34.58.63,1.15,1.36,1.69,2.19.2.3.4.6.61.9.17.25.24.57.16.86-.04.18-.13.34-.25.47.11.32.35.69.59,1.06.18.28.36.56.5.83.41.79.77,1.64,1.11,2.59.11.32.22.64.31.97.04-.07.09-.14.14-.2.2-.22.48-.34.77-.34.06,0,.12,0,.17.01.1,0,.24.02.39.02.63,0,1.32-.13,1.99-.25,0,0,.16-.03.16-.03.06-.01.12-.02.18-.02h0c1.94,0,3.89.09,5.78.27,11.06,1.05,20.97,4.75,28.69,10.69.5-.3,1.03-.59,1.61-.9.15-.08.32-.12.49-.12.12,0,.24.02.36.06.17-.12.35-.18.56-.18.03,0,.06,0,.1,0l1.14-.51c1.8-.78,3.66-1.58,5.63-2.15,1.17-.34,2.38-.62,3.57-.84.95-.17,2.03-.37,3.11-.37h.24c.85.03,2.06.15,2.82,1.01,1.22,1.38.08,3.12-.29,3.68-1.1,1.68-2.64,3.2-4.69,4.66-2.08,1.48-4.32,2.68-6.27,3.7,1.15,1.85,1.97,3.84,2.43,5.93l.05.21c.17.76.38,1.7.24,2.61-.15.96-.81,1.55-1.73,1.55h0ZM34.99,40.72c.28,0,.55.11.75.31,0,0,.1.1.1.1.41.41.84.8,1.27,1.18.73.66,1.53,1.32,2.4,1.72.63.29,1.27.44,1.87.44.25,0,.5-.02.75-.07.97-.19,1.96-.75,2.8-1.27,1.39-.86,3.1-2.26,3.39-4.06.07-.47.1-1.33-.58-1.83-.6-.44-1.54-.6-2.44-.75l-.4-.07c-1.44-.25-2.85-.4-4.18-.44-.2,0-.39,0-.59,0-.46,0-.92.01-1.39.04h-.27c-.29.02-.58.03-.82.09-.08.02-.15.03-.23.03-.26,0-.52-.1-.72-.28-.06-.06-.12-.12-.16-.19-.35,1.77-.96,3.49-1.84,5.11.05-.02.11-.03.16-.03.04,0,.08,0,.13,0ZM23.83,31.61c-.06,0-.1.02-.11.02-.07.06-.19.15-.27.19-.05.03-.11.07-.08.22.02.14.12.29.26.32.04,0,.07.01.11.01.16,0,.32-.07.42-.17.05-.06.07-.12.06-.21-.01-.1-.06-.25-.22-.34-.04-.03-.11-.04-.17-.04Z"/><path class="cls-4" d="M61.01,23.08c-.16,0-.32-.04-.47-.11-4.01-2.03-8.31-3.54-12.77-4.5-1.99-.43-4.04-.76-6.11-.98-.38-.04-.71-.29-.86-.65-.15-.36-.08-.77.17-1.07.27-.33.6-.71,1-1.06.67-.58,1.49-1.08,2.5-1.54,1.55-.7,3.32-1.06,5.26-1.06.31,0,.62,0,.94.03,2.56.14,5.01.88,6.87,1.5,2.12.71,4.25,1.64,5.45,3.59.68,1.12.88,2.28.57,3.37-.36,1.23-1.2,1.8-1.94,2.31-.18.12-.38.18-.59.18Z"/><path class="cls-4" d="M41.28,44.77c-.6,0-1.19-.12-1.74-.37-1.07-.47-1.93-1.21-2.71-1.92l-.39-.36c-.25-.24-.51-.47-.77-.7l-.16-.14c-.1-.09-.2-.18-.31-.26-.39-.3-.52-.84-.31-1.29.32-.68.6-1.37.83-2.06.15-.44.27-.88.38-1.33.07-.28.25-.53.51-.67.16-.09.33-.13.51-.13.11,0,.22.02.33.05.15.05.37.07.65.07.24,0,.49-.02.73-.03.27-.02.54-.03.78-.03,1.22.01,2.28.07,3.3.18,1.07.11,2.19.3,3.31.55l.19.04c.68.14,2.1.44,2.27,1.91.26,2.23-1.9,4.01-3.22,4.87-1.27.83-2.65,1.6-4.17,1.6h0Z"/><path class="cls-4" d="M54.85,57.88c-.61,0-1.21-.09-1.78-.17l-.53-.08c-.87-.11-1.76-.26-2.72-.44-.91-.17-1.81-.36-2.7-.58l-.13-.03c-.78-.18-1.76-.41-2.52-1.13-.65-.61-1.01-1.38-1.29-2.12l-.09-.23c-.12-.33-.07-.71.15-.99.2-.27.51-.42.84-.42.02,0,.05,0,.07,0,1.72.12,3.44.18,5.1.18,2.07,0,4.14-.09,6.13-.27.03,0,.06,0,.09,0,.29,0,.57.12.77.34.22.24.32.57.26.89,0,.44.04.92.08,1.4.03.43.06.86.08,1.29l.02.16c.08.76.1,1.29-.25,1.72-.36.44-.88.47-1.11.49-.17.01-.32.02-.47.02Z"/><path class="cls-4" d="M30.09,47.73c-.48,0-.94-.21-1.24-.58-.32-.38-.44-.89-.35-1.4.14-.73.6-1.2.93-1.54l1.13-1.23c.61-.66,1.16-1.39,1.65-2.15,1.76-2.76,2.64-5.9,2.54-9.08-.05-1.61-.36-3.24-.93-4.84-.3-.86-.63-1.62-.99-2.32-.11-.22-.26-.44-.4-.66-.38-.59-.81-1.26-.94-2.04-.12-.74.23-1.46.87-1.8.23-.12.5-.19.76-.19s.52.06.76.18c.73.35,1.17.99,1.52,1.5.35.5.65,1.01.97,1.58.56,1.03,1.03,2.11,1.38,3.23.11.35.21.69.3,1.04.54,2.11.73,4.32.55,6.48h.02c.5-.03,1-.04,1.49-.04.22,0,.43,0,.65,0,1.43.04,2.94.2,4.48.47l.38.06c1.1.18,2.34.39,3.34,1.13,1.15.85,1.66,2.25,1.41,3.85-.41,2.58-2.59,4.42-4.35,5.52-1,.62-2.2,1.29-3.5,1.55-.38.08-.77.11-1.16.11-.91,0-1.84-.21-2.75-.63-1.12-.51-2.06-1.29-2.92-2.06-.17-.16-.35-.31-.52-.47-.06.08-.11.16-.17.24-.68.94-1.28,1.68-1.9,2.3l-.08.08c-.67.68-1.68,1.7-2.94,1.7h0ZM37.11,39.9c.26.22.5.45.75.68l.38.35c.66.6,1.37,1.21,2.14,1.55.29.13.58.19.9.19.97,0,2.03-.6,3.02-1.26,1.15-.75,2.34-1.87,2.29-2.8-.14-.07-.45-.13-.63-.17l-.22-.05c-1.04-.24-2.07-.41-3.06-.51-.95-.1-1.95-.16-3.04-.17h0c-.24,0-.45.02-.68.03-.29.02-.58.04-.87.04-.07,0-.14,0-.21,0-.06.19-.12.38-.18.57-.17.52-.37,1.04-.59,1.55Z"/><path class="cls-4" d="M23.75,34.47c-.18,0-.37-.02-.54-.06-.95-.2-1.71-1-1.9-1.99-.18-.95.21-1.85,1-2.36.01,0,.03-.02.04-.03.06-.05.11-.09.17-.13.37-.26.83-.4,1.31-.4.44,0,.86.11,1.23.33.69.4,1.14,1.08,1.25,1.88.09.69-.11,1.35-.56,1.87-.49.56-1.23.89-2,.89h0Z"/><path class="cls-4" d="M55.06,59.69c-.43,0-.84-.05-1.23-.09l-.19-.02c-1.2-.13-2.39-.3-3.54-.5-1.19-.21-2.36-.47-3.48-.77-1.04-.28-2.13-.61-3.07-1.4-.74-.63-1.33-1.5-1.78-2.66-.08-.2-.16-.42-.23-.66-4.97-.48-10.24-1.44-15.68-2.84-4.93-1.27-10.14-2.8-14.83-5.33-1.06-.57-2.19-1.22-3.23-2.01-1.43-1.1-2.15-2.33-2.15-3.66,0-1.74,1.32-2.73,2.29-3.45,0,0,1.04-.79,1.45-1.1-.78-.53-1.58-1.14-2.43-1.85-1.22-1.03-3.07-2.59-3.31-4.83-.26-2.39,1.64-4.2,2.66-5.17,1.17-1.12,2.52-2.13,4-3.01,5.69-3.39,12.29-4.43,17.4-4.95,2.37-.24,4.76-.37,7.1-.37,1.51,0,3.03.05,4.52.15.45-.7,1.1-1.4,1.98-2.1,1.03-.83,2.2-1.48,3.49-1.95,1.48-.53,3.13-.8,4.9-.8.91,0,1.87.07,2.86.21,2.72.39,5.43,1.17,7.81,2.26,2.85,1.31,4.7,3.44,5.08,5.86.21,1.37-.05,2.73-.75,3.85-.06.09-.12.18-.18.27,5.28,3.12,9.66,6.98,13.06,11.5,1.14-.62,2.31-1.09,3.34-1.49,1.42-.54,2.91-1,4.41-1.36,1.34-.32,2.77-.58,4.26-.76.52-.06.99-.09,1.44-.09.74,0,1.41.08,2.04.26,1.36.38,2.4,1.2,2.92,2.3.65,1.38.45,2.99-.56,4.65-2.39,3.93-6.34,6.42-10.03,8.41.71,1.43,1.25,2.92,1.6,4.44.41,1.75,1.01,4.33-.69,6-.67.66-1.48.99-2.43.99h0c-1.36,0-2.67-.68-3.78-1.35-2.82-1.71-5.16-4.07-6.83-6.88-.73.33-1.48.6-2.21.87-1.45.54-2.89,1.01-4.34,1.41-2.64.74-5.46,1.31-8.37,1.7.11.91.12,1.81.13,2.57.01.77.04,2.57-1.68,3.39-.51.24-1.08.36-1.75.36ZM45.9,53.92c.35.33.94.47,1.56.61l.14.03c.87.21,1.74.39,2.61.56.92.17,1.77.31,2.6.42.19.02.38.05.57.08.4.06.81.12,1.2.14,0-.09-.01-.16-.02-.21-.01-.4-.04-.8-.07-1.19-.01-.2-.03-.4-.04-.59-1.71.13-3.45.19-5.2.19h0c-1.11,0-2.24-.03-3.38-.08.01.01.02.02.04.04ZM75.64,45.62c.23.17.42.4.56.67.83,1.59,1.87,3.01,3.1,4.24,1.38,1.38,2.75,2.36,4.06,2.93.03.01.06.03.09.04,0-.48-.12-1.01-.23-1.5l-.05-.22c-.42-1.89-1.17-3.7-2.23-5.37-.29-.45-.37-1.03-.22-1.57.15-.54.5-.99.96-1.23,1.92-1,4.14-2.18,6.16-3.61,1.81-1.29,3.21-2.67,4.16-4.1.62-.95.48-1.13.47-1.14-.07-.08-.34-.27-1.3-.3h-.18c-.89,0-1.83.17-2.74.33-1.13.2-2.26.47-3.37.79-1.85.53-3.56,1.28-5.38,2.06l-1.21.52c-.17.07-.33.12-.51.14-.28.15-.58.23-.89.23s-.59-.07-.86-.21c-.3-.15-.57-.38-.78-.66-3.6-4.82-8.07-8.81-13.29-11.84-7.77-4.5-17.18-6.88-27.23-6.88-1.33,0-2.7.04-4.04.13-1.07.07-2.14.16-3.17.27-4.57.5-10.44,1.46-15.35,4.47-1.1.68-2.1,1.44-2.97,2.26l-.23.21c-.56.52-1.5,1.39-1.35,1.92.23.77,1.15,1.52,1.97,2.17.18.15.36.29.53.43.86.72,1.79,1.4,2.69,2.06l.96.71c.64.48.91,1.23.71,1.96-.06.42-.28.81-.62,1.09-1.12.93-2.29,1.82-3.42,2.68l-.17.13c-.08.06-.17.13-.27.19-.08.06-.21.15-.31.23.07.08.15.16.19.19.7.68,1.69,1.21,2.65,1.72l.34.18c1.13.61,2.31,1.17,3.51,1.66,4.9,2.01,10.09,3.29,14.07,4.18,5.31,1.19,10.24,1.88,15.06,2.12,1.22.06,2.44.09,3.64.09,3.73,0,7.37-.3,10.83-.88,2.35-.4,4.66-.94,6.86-1.6,1.16-.35,2.31-.74,3.42-1.16.37-.14.73-.28,1.09-.43.77-.31,1.57-.63,2.41-.88.18-.05.36-.08.54-.08.54,0,1.02.24,1.35.65ZM44.18,15.68c1.36.2,2.71.44,4.02.73,4.43.95,8.7,2.43,12.71,4.4.33-.25.51-.47.61-.8.18-.64-.08-1.27-.34-1.69-.88-1.44-2.7-2.15-4.33-2.7-1.73-.58-4.01-1.26-6.32-1.39-.27-.02-.55-.02-.82-.02-1.64,0-3.12.29-4.39.87-.43.19-.81.4-1.15.61Z"/><path class="cls-1" d="M32.85,21.02c.16-.08.37-.1.58,0,.5.24.84.75,1.15,1.2.32.46.61.95.88,1.44.53.97.97,1.99,1.3,3.05.1.33.2.66.28.99,0,0,.01,0,.02,0,.92.1,1.87-.08,2.77-.25.03,0,.07-.01.1-.02,1.9,0,3.79.09,5.68.27,10.4.99,20.5,4.39,28.71,10.92.71-.44,1.44-.85,2.18-1.25-.15-.08-.29-.2-.4-.34-3.68-4.94-8.28-9.03-13.61-12.12-9.62-5.57-20.85-7.58-31.87-6.9.59.64,1.12,1.34,1.59,2.05.21.31.42.63.64.95Z"/><path class="cls-3" d="M88.44,40.85c1.69-1.2,3.28-2.64,4.42-4.38.44-.67,1.02-1.69.38-2.41-.48-.54-1.38-.63-2.06-.65-1.05-.03-2.11.16-3.14.35-1.17.21-2.33.48-3.47.81-2.33.67-4.48,1.68-6.71,2.63-.15.06-.3.09-.44.08-.04.03-.08.06-.12.09-.28.16-.57.15-.82.02-.74.39-1.47.81-2.18,1.25-8.21-6.53-18.31-9.93-28.71-10.92-1.89-.18-3.79-.27-5.68-.27-.03,0-.07.01-.1.02-.9.16-1.85.34-2.77.25,0,0-.01,0-.02,0,.62,2.41.75,4.93.37,7.38.42-.09.88-.09,1.26-.11.69-.04,1.37-.05,2.06-.03,1.45.04,2.9.2,4.33.45,1.08.19,2.37.34,3.28,1,.91.67,1.16,1.77.99,2.84-.34,2.11-2.15,3.72-3.87,4.79-.96.6-2.03,1.19-3.15,1.41-1.13.22-2.23.04-3.27-.44-.99-.46-1.85-1.17-2.66-1.89-.45-.4-.9-.8-1.32-1.23-.03-.03-.06-.07-.1-.1-.26.43-.53.86-.83,1.27-.54.76-1.13,1.51-1.79,2.18-.57.58-1.41,1.47-2.27,1.47-.4,0-.63-.37-.56-.73.1-.51.5-.84.84-1.21.32-.35.65-.7.97-1.06.65-.71,1.24-1.48,1.76-2.29,1.85-2.88,2.81-6.25,2.7-9.68-.06-1.76-.4-3.49-.99-5.15-.3-.84-.64-1.67-1.05-2.46-.39-.75-1.1-1.55-1.24-2.39-.05-.31.09-.58.32-.7-.22-.32-.43-.63-.64-.95-.47-.71-1-1.41-1.59-2.05-1.07.07-2.15.16-3.22.27-5.43.59-11.07,1.73-15.78,4.62-1.13.69-2.18,1.48-3.14,2.39-.81.76-2.23,1.93-1.86,3.2.38,1.3,1.85,2.28,2.83,3.11,1.18,1,2.46,1.89,3.7,2.81.34.25.41.61.3.91-.01.18-.09.36-.26.5-1.16.96-2.36,1.87-3.56,2.78-.35.26-1.02.63-1.11,1.09-.08.43.33.84.61,1.11.9.87,2.13,1.48,3.22,2.07,1.17.63,2.38,1.21,3.61,1.71,4.57,1.88,9.42,3.16,14.24,4.23,5.01,1.12,10.1,1.89,15.24,2.14,4.91.24,9.85.02,14.7-.8,2.36-.4,4.7-.94,6.99-1.63,1.18-.35,2.34-.75,3.49-1.18,1.15-.43,2.26-.94,3.43-1.29.39-.12.69.06.84.33.15.08.28.21.38.4.86,1.66,1.96,3.18,3.29,4.5,1.25,1.24,2.75,2.44,4.38,3.15.65.29,1.39.42,1.52-.44.12-.78-.11-1.67-.27-2.43-.45-2.03-1.25-3.95-2.37-5.71-.27-.42-.1-1.08.34-1.31,2.16-1.12,4.3-2.28,6.28-3.69ZM23.42,33.39c-1.1-.23-1.55-1.79-.55-2.44.03-.02.06-.04.09-.05.05-.05.1-.09.16-.13.41-.28.99-.27,1.41-.03.41.24.67.64.73,1.11.14,1.04-.9,1.74-1.85,1.54Z"/><path class="cls-2" d="M47.99,17.43c4.46.96,8.88,2.5,13.02,4.59.68-.46,1.27-.87,1.52-1.73.25-.88.01-1.77-.45-2.53-1.05-1.72-3.06-2.53-4.89-3.14-2.13-.72-4.34-1.32-6.59-1.45-1.95-.11-3.91.13-5.7.94-.8.36-1.58.8-2.24,1.38-.33.28-.61.61-.88.93,2.09.23,4.16.56,6.21,1Z"/><path class="cls-2" d="M37.12,36.6c-.12.48-.25.95-.41,1.41-.25.74-.54,1.47-.88,2.18.17.13.34.28.51.42.41.35.8.72,1.2,1.09.73.67,1.51,1.34,2.43,1.74,1.75.77,3.46-.19,4.92-1.15,1.19-.78,2.94-2.25,2.75-3.87-.09-.8-1.01-.9-1.65-1.05-1.05-.24-2.11-.42-3.19-.53-1.04-.11-2.09-.16-3.14-.17-.77,0-1.77.19-2.54-.06Z"/><path class="cls-2" d="M44.14,52.95c.25.64.53,1.26,1.04,1.74.59.56,1.41.72,2.17.9.88.21,1.77.4,2.66.57.88.17,1.77.31,2.66.43.81.11,1.71.29,2.53.23.12,0,.33,0,.41-.11.13-.16,0-.97,0-1.18-.03-.91-.15-1.83-.15-2.74,0-.05,0-.1.01-.15-3.79.34-7.6.36-11.4.1.03.07.05.15.08.22Z"/><path class="cls-4" d="M35.46,23.66c-.27-.49-.56-.98-.88-1.44-.31-.45-.65-.96-1.15-1.2-.21-.1-.42-.09-.58,0-.23.12-.37.39-.32.7.14.84.85,1.64,1.24,2.39.41.79.75,1.62,1.05,2.46.58,1.66.93,3.39.99,5.15.11,3.43-.86,6.8-2.7,9.68-.52.81-1.11,1.58-1.76,2.29-.32.35-.65.7-.97,1.06-.34.37-.74.7-.84,1.21-.07.36.16.73.56.73.86,0,1.7-.89,2.27-1.47.66-.67,1.25-1.41,1.79-2.18.29-.41.57-.84.83-1.27.03.03.06.07.1.1.42.43.87.83,1.32,1.23.81.72,1.67,1.44,2.66,1.89,1.04.48,2.13.67,3.27.44,1.12-.22,2.19-.81,3.15-1.41,1.72-1.07,3.53-2.68,3.87-4.79.17-1.07-.08-2.17-.99-2.84-.91-.67-2.2-.82-3.28-1-1.43-.25-2.88-.41-4.33-.45-.69-.02-1.37,0-2.06.03-.38.02-.85.02-1.26.11.37-2.45.24-4.97-.37-7.38-.09-.33-.18-.66-.28-.99-.33-1.06-.77-2.07-1.3-3.05ZM45.98,37.37c.64.15,1.55.25,1.65,1.05.19,1.62-1.56,3.09-2.75,3.87-1.46.96-3.17,1.92-4.92,1.15-.92-.4-1.7-1.07-2.43-1.74-.4-.36-.79-.74-1.2-1.09-.17-.14-.33-.29-.51-.42.34-.71.63-1.44.88-2.18.16-.47.29-.94.41-1.41.77.25,1.77.05,2.54.06,1.05.01,2.1.06,3.14.17,1.07.11,2.14.3,3.19.53Z"/><path class="cls-4" d="M24.54,30.74c-.42-.25-1.01-.26-1.41.03-.05.04-.11.08-.16.13-.03.02-.06.03-.09.05-1,.65-.55,2.21.55,2.44.95.2,1.99-.5,1.85-1.54-.06-.46-.33-.87-.73-1.11Z"/><path class="cls-4" d="M95.04,33.56c-.43-.91-1.3-1.47-2.25-1.73-1-.28-2.05-.26-3.07-.13-1.39.17-2.78.41-4.15.74-1.45.35-2.88.79-4.28,1.32-1.36.52-2.76,1.11-4,1.89-3.75-5.24-8.78-9.46-14.42-12.62.38-.3.7-.69.95-1.09.58-.93.77-2.05.6-3.13-.37-2.39-2.39-4.11-4.48-5.07-2.35-1.08-4.97-1.81-7.52-2.17-2.42-.34-4.94-.3-7.26.54-1.16.42-2.23,1-3.19,1.78-.77.62-1.62,1.44-2.03,2.38-4.03-.32-8.09-.25-12.11.16-5.84.6-11.86,1.77-16.97,4.81-1.37.81-2.66,1.77-3.81,2.87-1.18,1.12-2.53,2.53-2.34,4.3.19,1.77,1.67,3.06,2.95,4.14,1.13.96,2.33,1.85,3.61,2.58-.83.6-1.64,1.22-2.46,1.84-.94.71-2.1,1.46-2.1,2.79,0,1.19.85,2.14,1.74,2.82.96.73,2.03,1.34,3.09,1.92,4.56,2.46,9.6,3.95,14.59,5.23,5.32,1.37,10.77,2.4,16.26,2.88.06.45.23.9.36,1.25.33.84.78,1.65,1.48,2.24.76.65,1.71.94,2.66,1.19,1.12.3,2.25.54,3.39.75,1.15.2,2.31.37,3.47.49.86.09,1.79.24,2.61-.15.99-.47,1.1-1.45,1.08-2.43-.02-1.13-.04-2.29-.27-3.4,0-.03-.02-.06-.03-.09.27-.03.54-.06.81-.1,2.87-.37,5.71-.93,8.49-1.71,1.41-.4,2.81-.85,4.18-1.36,1.04-.39,2.1-.77,3.08-1.29,1.59,3.02,4.01,5.58,6.93,7.35,1.41.86,3.49,1.93,4.93.52,1.29-1.27.76-3.47.41-5.02-.41-1.79-1.1-3.51-2-5.11,4.01-2.11,8.15-4.56,10.55-8.52.67-1.1,1.08-2.44.51-3.66ZM55.46,52.64s-.01.1-.01.15c0,.91.13,1.83.15,2.74,0,.21.13,1.02,0,1.18-.08.1-.29.1-.41.11-.82.06-1.72-.12-2.53-.23-.89-.12-1.78-.26-2.66-.43-.89-.17-1.78-.36-2.66-.57-.76-.18-1.59-.35-2.17-.9-.51-.48-.79-1.1-1.04-1.74-.03-.07-.05-.14-.08-.22,3.8.26,7.61.24,11.4-.1ZM82.16,44.54c-.45.23-.61.89-.34,1.31,1.11,1.76,1.91,3.67,2.37,5.71.17.76.4,1.64.27,2.43-.14.87-.87.73-1.52.44-1.63-.71-3.13-1.91-4.38-3.15-1.33-1.32-2.43-2.84-3.29-4.5-.1-.19-.23-.32-.38-.4-.15-.27-.45-.45-.84-.33-1.17.35-2.28.86-3.43,1.29-1.15.43-2.31.83-3.49,1.18-2.29.69-4.63,1.23-6.99,1.63-4.85.82-9.79,1.05-14.7.8-5.13-.25-10.22-1.02-15.24-2.14-4.81-1.08-9.67-2.35-14.24-4.23-1.23-.51-2.44-1.08-3.61-1.71-1.09-.59-2.32-1.21-3.22-2.07-.28-.27-.7-.69-.61-1.11.09-.46.76-.83,1.11-1.09,1.2-.91,2.4-1.82,3.56-2.78.17-.14.25-.32.26-.5.11-.29.04-.65-.3-.91-1.24-.92-2.52-1.81-3.7-2.81-.98-.83-2.45-1.81-2.83-3.11-.37-1.26,1.05-2.43,1.86-3.2.96-.91,2.02-1.7,3.14-2.39,4.71-2.89,10.36-4.02,15.78-4.62,1.07-.12,2.14-.21,3.22-.27,11.01-.68,22.25,1.32,31.87,6.9,5.33,3.09,9.93,7.18,13.61,12.12.11.15.25.27.4.34.25.13.54.14.82-.02.04-.03.08-.06.12-.09.14.01.28-.01.44-.08,2.22-.95,4.37-1.95,6.71-2.63,1.14-.33,2.3-.6,3.47-.81,1.03-.19,2.09-.37,3.14-.35.68.02,1.58.11,2.06.65.64.73.06,1.74-.38,2.41-1.15,1.74-2.74,3.18-4.42,4.38-1.98,1.41-4.12,2.57-6.28,3.69ZM42.65,15.5c.67-.58,1.44-1.02,2.24-1.38,1.79-.81,3.75-1.05,5.7-.94,2.25.13,4.46.73,6.59,1.45,1.83.61,3.83,1.42,4.89,3.14.47.76.71,1.65.45,2.53-.25.86-.84,1.27-1.52,1.73-4.14-2.09-8.56-3.63-13.02-4.59-2.05-.44-4.13-.77-6.21-1,.27-.33.55-.65.88-.93Z"/></svg>