<?xml version="1.0" encoding="UTF-8"?><svg id="_レイヤー_1" xmlns="http://www.w3.org/2000/svg" viewBox="0 0 100 70"><defs><style>.cls-1{fill:#fee9ca;}.cls-2{fill:#39b54a;}.cls-3{fill:#ff9700;}.cls-4{fill:#42210b;}</style></defs><path class="cls-4" d="M25.29,64.66c-.62,0-1.22-.05-1.79-.14-1.84-.31-3.64-.99-5.36-2.03-3.13-1.89-5.69-4.91-7.61-8.95-4.01-8.48-3.94-17.85.19-25.07,1.29-2.26,2.81-3.98,4.5-5.13,1.04-.71,2.14-1.22,3.25-1.52.88-.24,1.77-.31,2.45-.34.01,0,.02,0,.04,0,.37,0,.69.28.73.66.05.02.09.03.12.03.04,0,.05-.02.06-.03.26-.4.45-.86.65-1.35.16-.39.33-.8.54-1.19.5-.91,1.05-1.74,1.64-2.45,1.27-1.53,2.79-2.76,4.5-3.64,1.76-.91,3.76-1.39,5.8-1.39,1.93,0,3.86.43,5.61,1.24,1.06.5,2.02,1.08,2.84,1.74.46.37.91.78,1.33,1.22l.21.22c.32.35.52.56.81.62,0-.02.08-.05.08-.07,0-.31.18-.59.46-.7,1.3-.53,2.66-.79,4.05-.79,2.6,0,5.19.98,7.27,2.75,1.47,1.25,2.74,2.81,3.76,4.64,1.24,2.21,2.17,4.29,2.84,6.38.72,2.25,1.14,4.78,1.28,7.73,0,.04,0,.07.02.11.09.29,0,.6-.24.78-1.08.87-2.04,1.97-2.86,3.28-1.34,2.13-2.32,4.75-2.93,7.8-.46,2.27-.53,4.23-.23,5.98.06.36-.15.71-.5.82-2.12,1.52-4.57,2.46-7.31,2.8-.03,0-.06,0-.09,0-.32,0-.6-.21-.7-.51-.03-.08-.04-.12-.19-.12-.25,0-.65.5-.91.82-.14.18-.28.35-.42.5-2.4,2.54-5.7,3.67-8.31,4.37-2.14.58-4.03.87-5.77.9h-.27c-.92,0-1.8-.06-2.6-.19-.45-.07-.89-.21-1.31-.33-.55-.17-1.07-.33-1.54-.33-.1.22-.35.4-.59.44-.27.04-.54.1-.81.15-.52.1-1.06.21-1.62.25-.35.03-.71.05-1.07.05ZM28.53,39.12c.22,1.54,1.69,2.9,2.56,3.58,1.24.98,2.72,1.61,4.28,1.83.37.05.74.08,1.11.08,2.77,0,5.36-1.42,7.11-3.91.53-.76.95-1.6,1.2-2.45.25-.82.46-1.76.15-2.46-.11-.1-.16-.18-.19-.32-.25-.31-.82-.33-1.33-.34h-.23c-.29-.01-.58-.02-.86-.02-.44,0-.87.01-1.31.03-1.44.07-2.91.25-4.35.54-1.39.28-2.76.67-4.09,1.16l-.19.07c-1.28.47-2.73,1-3.67,1.85-.03.13-.1.25-.2.35ZM26.52,34.09c-.11,0-.31.02-.46.18-.18.19-.25.44-.19.73.03.14.15.29.29.35.17.1.29.13.41.13.05,0,.11,0,.17-.02.17-.04.34-.2.42-.4.07-.16.12-.4-.01-.65-.11-.2-.35-.33-.63-.33ZM44.16,29.73c-.11,0-.31.02-.46.18-.18.19-.25.44-.19.73.03.14.15.29.29.35.17.1.29.13.41.13.05,0,.11,0,.17-.02.17-.04.34-.2.42-.4.07-.16.12-.4-.01-.65-.11-.2-.35-.33-.63-.33Z"/><path class="cls-4" d="M31.05,12.14c-.16,0-.33-.06-.46-.16-.19-.15-.29-.38-.27-.62.04-.65-.14-1.4-.31-2.13-.06-.24-.12-.48-.16-.71l-.4-1.89c-.01-.06-.02-.12-.03-.19,0-.05-.01-.11-.03-.16-.11-.34.02-.74.33-.91l.33-.18c.19-.11.36-.2.39-.21.37-.15.81-.33,1.24-.33.29,0,.54.08.74.23.61.46.58,1.32.56,1.89v.2s0,1.96,0,1.96v.41c-.01.54-.02,1.04.1,1.48.07.2.06.43-.05.62s-.28.32-.49.36c-.43.08-.85.19-1.26.31-.07.02-.14.03-.21.03Z"/><path class="cls-4" d="M81.83,36.17c-.11,0-.21-.02-.31-.07-.14-.06-.28-.12-.42-.18-.25-.09-.51-.17-.77-.24-.2-.05-.38-.18-.47-.37-.1-.18-.12-.4-.05-.6.1-.27.16-.58.23-.88.04-.18.07-.34.11-.5.08-.32.16-.64.23-.96l.1-.44c.05-.22.21-.43.41-.52.11-.05.24-.08.36-.08.1,0,.2.02.28.06.1.05.46.22.49.23l.18.09c.3.14.8.39.81,1.17,0,.5-.03.98-.12,1.42-.08.42-.19.84-.38,1.35-.07.19-.22.35-.41.43-.09.04-.19.06-.28.06Z"/><path class="cls-4" d="M80.45,65.24c-1.47,0-2.79-.48-3.82-1.39-.08-.07-.17-.11-.25-.11-.06,0-.11.02-.17.05-.98.51-2.11.78-3.27.78-2.33,0-4.53-1.05-5.88-2.8-.11-.14-.24-.23-.34-.23-.05.01-.11.02-.17.02-.09,0-.18-.01-.25-.04-2.2-.13-4.2-1.55-5.43-3.81-1.13-2.07-1.41-4.73-.85-7.92.78-4.36,2.69-10.07,7.37-12.49,1.25-.64,2.6-.98,3.93-.98s2.54.33,3.59.97c.04.02.07.03.11.03.08,0,.18-.04.25-.11.82-.73,2-1.13,3.34-1.13.84,0,1.72.16,2.46.46,2.12.84,3.04,2.86,3.67,4.71.05.15.19.26.24.26.27-.02.55-.04.83-.04,2.27,0,4.15.8,5.29,2.25,1.43,1.82,1.83,4.54,1.2,8.1-.75,4.19-3.21,9.62-7.88,12.3-1.24.71-2.64,1.1-3.96,1.1ZM76.21,49.71c-.49,0-.93.24-1.26.68-.63.84-1.01,2.51-.59,3.5.02.05.04.1.05.15.07.37.37.73.79.94.22.11.46.17.71.17.38,0,.75-.13,1.05-.36,1.08-.84,1.34-2.78.84-3.95-.29-.69-.91-1.14-1.58-1.14ZM71.91,45.65s-.04.01-.07.02c-.03.06-.12.17-.17.22l-.05.1s.04.12.04.12c.03.04.07.09.12.12.04.01.1.04.13.06.05.03.1.05.17.07.02-.01.07-.05.09-.06.04-.03.06-.06.07-.12,0-.04.02-.08.03-.12v-.11c0-.07-.02-.1-.02-.1-.02-.02-.04-.06-.06-.08-.11-.08-.15-.1-.18-.11,0,0-.06,0-.1,0Z"/><path class="cls-4" d="M36.45,44.03c-1.33,0-2.67-.35-3.9-1.01-.85-.46-1.61-1.02-2.25-1.66-.4-.41-.72-.85-1.02-1.29l-.2-.29c-.13-.18-.17-.41-.11-.63.06-.22.22-.39.43-.48.25-.1.49-.22.74-.34.19-.09.37-.18.56-.26.59-.26,1.25-.52,2.01-.8,1.36-.49,2.77-.89,4.2-1.18,1.36-.27,2.77-.45,4.18-.51.42-.02.84-.03,1.27-.03.3,0,.61,0,.91.01h.32c.14.02.27.03.4.03.23,0,.45.11.58.3.14.19.18.43.11.65-.06.21-.12.43-.17.65-.1.41-.21.84-.38,1.25-.4.94-.88,1.76-1.43,2.43-1.26,1.53-2.95,2.59-4.74,2.98-.48.11-.99.16-1.5.16h0Z"/><path class="cls-4" d="M75.93,55.1c-.07,0-.14,0-.22-.02-.76-.11-1.09-.67-1.32-1.04-.06-.1-.1-.23-.11-.35-.03-.66-.04-1.44.2-2.26.1-.36.41-1.46,1.38-1.73.12-.03.24-.05.36-.05.72,0,1.24.53,1.49,1.02.57,1.12.27,2.7-.35,3.58-.38.54-.9.84-1.45.84Z"/><path class="cls-4" d="M80.57,67.31c-1.6,0-3.12-.43-4.42-1.25-1.02.38-2.1.57-3.2.57-2.77,0-5.49-1.25-7.32-3.35-2.79-.15-5.42-2.03-6.81-4.88-2.41,1.48-5.05,2.29-7.54,2.29-.07,0-.14,0-.21,0-.63.76-1.49,1.5-2.65,2.29-2.39,1.62-5.48,2.79-9.17,3.47-1.48.27-2.82.4-4.1.4-.48,0-.96-.02-1.44-.06-.95-.08-1.88-.25-2.77-.52-.42-.12-.84-.25-1.23-.41-1.1.66-2.49,1-4.16,1h0c-.98,0-2.04-.12-3.14-.34-2.3-.47-4.6-1.51-6.65-3-3.32-2.41-5.96-5.99-7.86-10.62-1.98-4.83-2.83-9.77-2.47-14.27.4-4.97,2.07-9.66,4.71-13.22,1.55-2.09,3.29-3.65,5.17-4.63,1.17-.61,2.98-1.33,4.95-1.33.22,0,.43,0,.64.03.19-.41.4-.8.62-1.2.58-1.06,1.32-2.08,2.2-3.06,1.34-1.47,2.97-2.7,4.75-3.58-.34-1.06-.55-2.17-.76-3.25-.09-.45-.17-.89-.27-1.33l-.03-.12c-.18-.8-.42-1.9.49-2.79.55-.54,1.37-.95,2.46-1.25.51-.13.95-.2,1.35-.2.61,0,1.15.15,1.61.44.76.48,1.3,1.35,1.48,2.39.12.73.12,1.46.12,2.16,0,.21,0,.42,0,.63,0,.2.01.4.02.61.02.39.03.78.02,1.18.26,0,.51,0,.77.02,2.26.13,4.53.77,6.57,1.86.98.52,1.93,1.18,2.84,1.96l.17.14c.17.15.36.3.54.47,1.33-.66,2.9-1.01,4.59-1.01.83,0,1.66.08,2.49.25,4.14.82,7.95,3.88,10.45,8.39,1.35,2.44,2.39,4.87,3.08,7.2.5,1.68.84,3.54,1.03,5.64.06-.02.12-.05.19-.07,1.16-.43,2.36-.65,3.57-.65,1.28,0,2.49.24,3.6.72.96-.56,2.12-.9,3.32-.97.02-.09.12-.54.12-.54.15-.72.31-1.43.49-2.14.09-.36.36-1.47,1.5-1.82.2-.06.4-.09.61-.09.67,0,1.26.32,1.73.58l.17.1c.55.3,1.23.67,1.59,1.4.36.73.31,1.56.27,2.18-.04.67-.16,1.6-.47,2.53.8.82,1.47,1.86,2.03,3.18,3.06.11,5.67,1.55,7.04,3.9,1.43,2.44,1.72,5.7.86,9.71-.61,2.87-1.82,5.62-3.51,7.96-2.06,2.86-4.4,4.79-6.95,5.75-1.01.38-2.06.57-3.13.57ZM76.38,62.27c.45,0,.87.17,1.23.48.75.67,1.74,1.02,2.85,1.02s2.21-.32,3.23-.91c4.23-2.43,6.48-7.43,7.17-11.29.38-2.15.54-5.1-.91-6.93-1.16-1.47-3.09-1.69-4.13-1.69-.23,0-.47.01-.7.03-.02,0-.11,0-.13,0-.83,0-1.43-.65-1.63-1.26-.52-1.54-1.25-3.19-2.82-3.82-.58-.23-1.26-.36-1.92-.36-.98,0-1.81.27-2.36.76-.35.31-.79.48-1.23.48h0c-.31,0-.61-.08-.87-.24-.84-.5-1.79-.76-2.84-.76s-2.22.28-3.25.82c-4.15,2.15-5.88,7.4-6.6,11.44-.51,2.85-.27,5.19.69,6.96.76,1.4,2.25,2.93,4.15,3.04.1,0,.19.02.28.04.05,0,.09,0,.14,0,.57,0,1.12.29,1.51.8,1.06,1.37,2.86,2.22,4.71,2.22.92,0,1.82-.21,2.58-.62.27-.14.56-.22.86-.22ZM20.48,22.97c-.5.04-1.07.11-1.61.26-.96.26-1.9.7-2.81,1.32-1.51,1.02-2.87,2.58-4.05,4.65-3.9,6.8-3.95,15.66-.14,23.71,1.79,3.78,4.16,6.58,7.04,8.32,1.56.94,3.19,1.56,4.84,1.83.49.08,1.01.12,1.55.12.31,0,.63-.01.94-.04.48-.04.96-.13,1.47-.23.18-.03.36-.07.54-.1.28-.33.69-.52,1.14-.52.7,0,1.35.2,1.98.39.39.12.76.23,1.12.29.73.12,1.53.18,2.37.18h.25c1.61-.02,3.38-.3,5.41-.85,2.42-.65,5.48-1.69,7.63-3.97.11-.11.22-.25.33-.4.46-.58,1.09-1.38,2.06-1.38.53,0,.98.21,1.28.57,2.23-.34,4.23-1.13,5.97-2.35-.24-1.8-.14-3.77.31-6.01.65-3.22,1.7-6.01,3.13-8.29.82-1.31,1.79-2.45,2.86-3.37-.14-2.8-.53-5.19-1.21-7.31-.64-1.99-1.53-3.99-2.72-6.11-.94-1.68-2.1-3.1-3.43-4.24-1.82-1.54-4.06-2.4-6.32-2.4-1.06,0-2.11.18-3.13.54-.21.62-.77,1.02-1.43,1.02-.12,0-.24-.01-.35-.04-.75-.17-1.18-.64-1.57-1.06l-.19-.2c-.39-.4-.79-.77-1.2-1.1-.73-.58-1.58-1.11-2.54-1.56-1.55-.72-3.27-1.11-4.98-1.11-1.8,0-3.57.42-5.12,1.22-1.54.79-2.9,1.9-4.04,3.28-.53.64-1.03,1.38-1.48,2.21-.18.34-.33.69-.48,1.05-.22.53-.45,1.09-.79,1.6-.29.45-.79.71-1.32.71s-1.02-.26-1.3-.68ZM31.27,8.21c.04.21.1.44.15.67.02.08.04.17.06.26v-2.16c0-.07,0-.16,0-.26,0-.13.01-.38,0-.56-.16.04-.35.12-.44.16-.05.02-.1.05-.16.08l.38,1.83Z"/><path class="cls-4" d="M26.58,36.96c-.39,0-.78-.11-1.11-.31-.5-.23-.92-.77-1.04-1.36-.15-.77.05-1.49.57-2.03.39-.41.93-.63,1.52-.63.82,0,1.56.43,1.92,1.11.32.59.34,1.27.07,1.91-.27.64-.83,1.12-1.46,1.26-.16.04-.32.05-.48.05Z"/><path class="cls-4" d="M44.21,32.6c-.39,0-.78-.11-1.11-.31-.5-.23-.92-.77-1.04-1.36-.15-.77.05-1.49.57-2.03.39-.41.93-.63,1.52-.63.82,0,1.56.43,1.92,1.11.32.59.34,1.27.07,1.91-.27.64-.83,1.12-1.46,1.26-.16.04-.32.05-.48.05Z"/><path class="cls-4" d="M36.49,46.07c-.44,0-.88-.03-1.31-.09-1.82-.25-3.54-.99-4.99-2.13-1.06-.83-2.87-2.54-3.12-4.63-.04-.37.06-.73.3-1.01.08-.2.21-.38.38-.53,1.15-1.04,2.75-1.63,4.15-2.14l.18-.07c1.4-.51,2.85-.92,4.31-1.22,1.52-.31,3.06-.5,4.57-.57.46-.02.92-.03,1.38-.03.3,0,.61,0,.91.01h.21c.73.02,1.74.04,2.39.8.11.13.2.28.26.43.07.09.14.19.19.3.5,1.14.23,2.39-.09,3.47-.3,1.01-.78,1.97-1.41,2.87-2.03,2.88-5.06,4.53-8.31,4.53h0ZM30.79,39.65c.18.24.35.46.55.67.54.54,1.18,1.02,1.9,1.41,1.01.54,2.12.83,3.2.83.41,0,.81-.04,1.19-.13,1.47-.32,2.86-1.2,3.91-2.48.46-.56.87-1.25,1.21-2.07.11-.25.19-.54.26-.85-.23,0-.46,0-.68,0-.4,0-.8,0-1.2.03-1.33.06-2.66.22-3.95.48-1.35.27-2.69.65-3.99,1.12-.73.26-1.36.51-1.91.76-.17.07-.33.15-.5.23Z"/><path class="cls-4" d="M72.07,47.81c-.14,0-.29-.02-.43-.06-.19-.07-.31-.12-.41-.18-.06-.03-.12-.06-.18-.09-.26-.16-.48-.37-.64-.62-.08-.14-.15-.3-.19-.45-.04-.14-.11-.51.01-.88.02-.06.09-.28.2-.42.02-.03.07-.1.13-.17.16-.25.34-.41.55-.54.26-.15.54-.23.83-.23,0,0,.12,0,.14.01.11.01.22.02.32.05.12.03.25.09.36.14.18.09.31.19.43.3.14.12.23.26.3.37.08.13.15.28.21.46.09.29.09.63,0,.94,0,0,0,.03-.02.05-.08.39-.29.73-.61.97-.13.13-.35.24-.59.3-.12.03-.27.05-.41.05Z"/><path class="cls-4" d="M82.09,50.06c-.15,0-.29-.02-.44-.06-.19-.07-.31-.12-.41-.18-.06-.03-.12-.06-.18-.09-.26-.15-.48-.37-.63-.62-.08-.14-.15-.3-.19-.45-.04-.14-.11-.51.01-.89.03-.08.1-.28.2-.42.02-.03.06-.1.13-.17.16-.25.34-.42.55-.54.26-.15.53-.22.83-.23,0,0,.12,0,.14.01.11.01.22.02.32.05.12.03.25.09.36.14.19.09.32.2.43.3.13.12.23.26.3.37.08.13.15.28.21.46.09.3.09.64,0,.94,0,0,0,.03-.02.05-.08.39-.29.72-.61.97-.13.13-.35.24-.59.3-.12.03-.27.05-.41.05Z"/><path class="cls-4" d="M75.9,56.62c-.49,0-.97-.12-1.39-.34-.79-.41-1.36-1.12-1.54-1.9-.62-1.56-.09-3.69.8-4.88.6-.81,1.49-1.27,2.44-1.27,1.26,0,2.41.8,2.93,2.03.72,1.7.37,4.39-1.29,5.68-.56.43-1.25.67-1.95.67h0ZM75.76,53.45c.07.11.12.18.16.19h0c.06,0,.16-.07.26-.21.39-.55.5-1.56.24-2.07-.06-.12-.14-.19-.18-.22-.05.03-.19.17-.34.7-.14.51-.17,1-.15,1.61Z"/><path class="cls-2" d="M18.52,61.86c1.57.95,3.29,1.63,5.1,1.93.88.15,1.79.17,2.67.09.8-.07,1.58-.27,2.38-.4.12-.26.37-.46.71-.45.98,0,1.99.52,2.97.68.9.15,1.83.2,2.75.18,1.89-.03,3.77-.38,5.59-.87,2.92-.79,5.85-1.93,7.97-4.17.5-.52,1.05-1.55,1.85-1.55.49,0,.78.27.89.63,2.52-.31,4.86-1.15,6.95-2.66.07-.05.14-.08.22-.11-.35-2.06-.18-4.2.23-6.25.56-2.79,1.51-5.62,3.03-8.05.83-1.32,1.84-2.5,3.02-3.46-.03-.09-.05-.18-.05-.29-.12-2.56-.46-5.1-1.25-7.54-.7-2.17-1.66-4.26-2.78-6.24-.94-1.67-2.13-3.19-3.6-4.44-2.99-2.54-6.95-3.29-10.57-1.83,0,.02,0,.04,0,.06,0,.52-.49.86-.98.75-.63-.14-.96-.61-1.39-1.05-.4-.41-.82-.8-1.27-1.16-.82-.66-1.74-1.2-2.69-1.65-3.39-1.58-7.42-1.59-10.75.13-1.65.85-3.09,2.03-4.27,3.46-.6.72-1.12,1.51-1.56,2.33-.46.84-.7,1.8-1.23,2.6-.42.64-1.44.44-1.52-.33-.77.04-1.54.11-2.29.31-1.09.29-2.1.79-3.03,1.42-1.81,1.23-3.2,3.01-4.28,4.89-4.31,7.52-3.8,16.71-.17,24.39,1.64,3.47,4.01,6.63,7.33,8.64ZM43.17,29.4c.64-.66,1.84-.49,2.27.32.22.41.22.86.04,1.28-.17.39-.51.73-.94.83-.37.08-.74.02-1.05-.17-.35-.16-.62-.5-.7-.88-.1-.51.02-1,.38-1.38ZM28.24,38.23c1.1-.99,2.73-1.56,4.1-2.07,1.37-.5,2.77-.9,4.2-1.19,1.47-.3,2.97-.49,4.46-.56.74-.04,1.49-.04,2.23-.02.69.02,1.58-.02,2.07.54.08.1.14.22.18.35.06.06.12.12.16.21.4.93.16,2.03-.12,2.96-.28.95-.74,1.85-1.31,2.66-2.04,2.9-5.36,4.63-8.93,4.13-1.68-.23-3.3-.92-4.64-1.98-1.26-.99-2.65-2.49-2.84-4.14-.03-.22.07-.41.22-.54.03-.13.1-.27.23-.38ZM25.53,33.76c.64-.66,1.84-.49,2.27.32.22.41.22.86.04,1.28-.17.39-.51.73-.94.83-.37.08-.74.02-1.05-.17-.35-.16-.62-.5-.7-.88-.1-.51.02-1,.38-1.38Z"/><path class="cls-2" d="M30.7,5.65s-.39.22-.64.35c.05.14.07.32.1.47.13.63.26,1.26.4,1.89.2.93.56,2.04.49,3.04.44-.13.88-.24,1.33-.33,0-.02-.02-.04-.02-.07-.18-.67-.13-1.4-.13-2.08,0-.65,0-1.31,0-1.96,0-.39.11-1.23-.26-1.51-.29-.22-.96.07-1.27.19Z"/><path class="cls-3" d="M81.83,35.43c.14-.4.27-.81.35-1.24.08-.42.11-.85.1-1.28,0-.41-.2-.41-.6-.63-.04-.02-.29-.13-.47-.22,0,.02,0,.04-.01.06-.11.47-.22.94-.34,1.41-.11.42-.19.97-.36,1.44.29.07.58.16.86.26.16.06.32.13.47.2Z"/><path class="cls-3" d="M67.72,37.96c-4.3,2.22-6.19,7.48-6.99,11.96-.44,2.46-.45,5.19.77,7.44.96,1.75,2.68,3.3,4.75,3.42.1,0,.19.02.27.05.43-.09.84.14,1.12.49,1.87,2.43,5.52,3.23,8.22,1.81.43-.22.89-.16,1.25.16,1.95,1.73,4.81,1.42,6.93.2,4.12-2.37,6.71-7.24,7.52-11.79.43-2.4.55-5.48-1.05-7.52-1.29-1.64-3.49-2.11-5.47-1.94-.46.04-.86-.36-1-.76-.59-1.75-1.42-3.54-3.24-4.26-1.54-.61-3.75-.62-5.04.54-.34.3-.83.4-1.23.16-2.09-1.25-4.69-1.05-6.81.04ZM80.95,48s.06-.18.09-.22c.03-.06.07-.11.12-.15,0-.01,0-.02.02-.03.08-.14.19-.24.32-.32.14-.08.29-.12.46-.12.08,0,.19.01.27.04.08.02.17.06.24.1.09.04.17.11.24.18.07.06.13.15.18.23.05.08.09.19.12.28.05.16.05.35,0,.52,0,.02-.01.04-.02.06-.04.23-.15.43-.35.58-.09.08-.19.14-.31.16-.16.04-.33.04-.49,0-.11-.04-.2-.08-.28-.13-.05-.02-.09-.04-.13-.06-.15-.09-.29-.22-.38-.37-.04-.07-.09-.17-.11-.25-.04-.14-.05-.33,0-.47ZM74.36,49.95c1.18-1.58,3.36-1.15,4.11.61.64,1.51.27,3.78-1.07,4.81-.72.56-1.73.69-2.55.26-.59-.3-1.05-.84-1.17-1.46-.55-1.29-.06-3.23.68-4.22ZM71.93,44.91c.08,0,.19.01.27.04.08.02.17.06.24.1.09.04.17.11.24.18.07.06.13.15.18.23.05.08.09.19.12.28.05.16.05.35,0,.52,0,.02-.01.04-.02.06-.04.23-.15.43-.35.58-.09.08-.19.14-.31.16-.16.04-.33.04-.49,0-.11-.04-.2-.08-.28-.13-.05-.02-.09-.04-.13-.06-.15-.09-.29-.22-.38-.37-.04-.07-.09-.17-.11-.25-.04-.14-.05-.33,0-.47.02-.05.06-.18.09-.22.03-.06.07-.11.12-.15,0-.01,0-.02.02-.03.08-.14.19-.24.32-.32.14-.08.29-.12.46-.12Z"/><path class="cls-1" d="M32.9,42.37c1.47.79,3.25,1.14,4.9.78,1.72-.37,3.21-1.38,4.32-2.73.55-.67.98-1.45,1.32-2.25.24-.57.34-1.23.53-1.83-.24,0-.49-.02-.74-.03-.71-.02-1.41-.02-2.12.01-1.37.06-2.72.22-4.06.49-1.39.28-2.76.66-4.09,1.15-.66.24-1.32.5-1.96.78-.44.19-.87.42-1.32.61.36.51.7,1.04,1.15,1.49.61.61,1.31,1.12,2.08,1.53Z"/><path class="cls-1" d="M75.03,53.66c.19.32.38.64.79.7.42.06.74-.2.97-.52.51-.72.71-2.02.29-2.82-.19-.36-.58-.72-1.01-.6-.51.14-.74.77-.87,1.22-.19.69-.2,1.35-.17,2.03Z"/><path class="cls-4" d="M16.21,62.91c1.88,1.37,4.08,2.41,6.36,2.88,2.17.45,4.97.61,6.9-.64.06-.04.11-.08.16-.13.49.25,1.05.41,1.53.55.86.25,1.74.41,2.62.49,1.78.15,3.59-.01,5.34-.33,3.07-.56,6.29-1.59,8.89-3.36.96-.65,1.99-1.46,2.72-2.43,0,0,.02,0,.02,0,2.98.15,5.96-.95,8.4-2.64.09.24.2.48.31.71,1.2,2.5,3.67,4.54,6.52,4.53,2.46,3.03,6.67,4.2,10.26,2.69,2.07,1.47,4.81,1.72,7.2.82,2.75-1.03,4.92-3.14,6.61-5.49,1.64-2.28,2.81-4.94,3.39-7.69.63-2.97.81-6.47-.78-9.19-1.42-2.42-4.18-3.57-6.91-3.54-.55-1.43-1.29-2.74-2.39-3.71.37-.87.54-1.88.6-2.77.04-.58.07-1.27-.19-1.81-.28-.57-.88-.86-1.41-1.15-.56-.31-1.16-.66-1.81-.46-.61.19-.86.72-1,1.29-.17.7-.33,1.41-.49,2.12-.07.34-.19.73-.22,1.1-1.38-.02-2.77.32-3.89,1.08-2.17-1.05-4.72-1.05-6.97-.21-.38.14-.74.3-1.09.48-.15-2.2-.46-4.41-1.09-6.53-.72-2.45-1.78-4.82-3.02-7.05-2.11-3.8-5.57-7.16-9.95-8.03-2.34-.46-4.97-.28-7.06.94-.34-.36-.73-.67-1.06-.95-.84-.71-1.74-1.35-2.71-1.87-1.93-1.03-4.07-1.65-6.26-1.77-.52-.03-1.03-.03-1.55,0,.16-.82.06-1.71.05-2.53-.01-.88.03-1.8-.12-2.67-.12-.73-.51-1.48-1.15-1.89-.73-.46-1.59-.36-2.39-.15-.72.19-1.59.52-2.14,1.06-.65.64-.43,1.44-.26,2.23.36,1.69.61,3.5,1.22,5.12-1.93.85-3.69,2.11-5.12,3.68-.81.89-1.52,1.86-2.1,2.91-.28.51-.58,1.07-.81,1.65-1.92-.33-4.02.29-5.71,1.16-1.98,1.03-3.6,2.63-4.92,4.41-2.72,3.68-4.2,8.31-4.56,12.84-.38,4.73.62,9.56,2.42,13.93,1.64,4.02,4.07,7.73,7.61,10.31ZM11.36,28.83c1.08-1.88,2.47-3.66,4.28-4.89.93-.63,1.95-1.13,3.03-1.42.75-.2,1.52-.28,2.29-.31.08.77,1.1.97,1.52.33.53-.8.77-1.76,1.23-2.6.45-.82.96-1.61,1.56-2.33,1.19-1.43,2.62-2.61,4.27-3.46,3.33-1.72,7.36-1.71,10.75-.13.95.44,1.87.99,2.69,1.65.45.36.87.75,1.27,1.16.42.44.76.91,1.39,1.05.49.11.98-.23.98-.75,0-.02,0-.04,0-.06,3.62-1.46,7.58-.71,10.57,1.83,1.47,1.25,2.66,2.76,3.6,4.44,1.12,1.99,2.08,4.07,2.78,6.24.78,2.45,1.13,4.98,1.25,7.54,0,.1.02.2.05.29-1.19.96-2.2,2.14-3.02,3.46-1.52,2.42-2.47,5.25-3.03,8.05-.41,2.05-.58,4.19-.23,6.25-.08.03-.15.06-.22.11-2.09,1.5-4.43,2.35-6.95,2.66-.11-.36-.4-.63-.89-.63-.8,0-1.36,1.03-1.85,1.55-2.12,2.24-5.05,3.38-7.97,4.17-1.82.49-3.7.84-5.59.87-.91.01-1.84-.04-2.75-.18-.98-.16-1.98-.67-2.97-.68-.35,0-.59.19-.71.45-.79.13-1.58.33-2.38.4-.89.08-1.79.06-2.67-.09-1.81-.3-3.53-.98-5.1-1.93-3.32-2.01-5.69-5.17-7.33-8.64-3.64-7.68-4.14-16.87.17-24.39ZM32.23,6.97c0,.65,0,1.31,0,1.96,0,.69-.05,1.42.13,2.08,0,.02.02.04.02.07-.45.09-.89.2-1.33.33.07-1-.3-2.11-.49-3.04-.13-.63-.26-1.26-.4-1.89-.03-.15-.04-.33-.1-.47.24-.13.6-.34.64-.35.31-.12.97-.42,1.27-.19.37.28.26,1.12.26,1.51ZM75.76,37.77c1.29-1.15,3.51-1.15,5.04-.54,1.82.73,2.66,2.52,3.24,4.26.14.4.53.8,1,.76,1.98-.17,4.18.3,5.47,1.94,1.6,2.03,1.48,5.12,1.05,7.52-.81,4.56-3.4,9.42-7.52,11.79-2.12,1.22-4.98,1.53-6.93-.2-.36-.32-.83-.39-1.25-.16-2.7,1.42-6.35.62-8.22-1.81-.28-.36-.69-.58-1.12-.49-.08-.03-.17-.05-.27-.05-2.08-.12-3.8-1.66-4.75-3.42-1.22-2.25-1.21-4.98-.77-7.44.8-4.48,2.68-9.74,6.99-11.96,2.12-1.09,4.72-1.29,6.81-.04.4.24.9.14,1.23-.16ZM80.85,33.53c.12-.47.23-.94.34-1.41,0-.02,0-.04.01-.06.18.09.42.2.47.22.4.22.6.21.6.63,0,.43-.03.86-.1,1.28-.08.43-.2.84-.35,1.24-.15-.07-.31-.14-.47-.2-.28-.1-.57-.19-.86-.26.17-.48.25-1.02.36-1.44Z"/><path class="cls-4" d="M25.85,36.02c.31.19.68.25,1.05.17.43-.09.77-.44.94-.83.18-.42.17-.87-.04-1.28-.43-.8-1.63-.98-2.27-.32-.37.38-.48.87-.38,1.38.07.37.35.71.7.88Z"/><path class="cls-4" d="M43.48,31.66c.31.19.68.25,1.05.17.43-.09.77-.44.94-.83.18-.42.17-.87-.04-1.28-.43-.8-1.63-.98-2.27-.32-.37.38-.48.87-.38,1.38.07.37.35.71.7.88Z"/><path class="cls-4" d="M27.8,39.14c.2,1.65,1.59,3.15,2.84,4.14,1.34,1.05,2.95,1.74,4.64,1.98,3.57.5,6.89-1.24,8.93-4.13.57-.81,1.02-1.71,1.31-2.66.28-.94.53-2.04.12-2.96-.04-.09-.09-.16-.16-.21-.03-.13-.1-.25-.18-.35-.48-.57-1.38-.52-2.07-.54-.74-.02-1.49-.02-2.23.02-1.5.07-2.99.26-4.46.56-1.43.29-2.83.68-4.2,1.19-1.37.5-3,1.07-4.1,2.07-.12.11-.2.24-.23.38-.15.13-.24.31-.22.54ZM30.99,38.75c.64-.29,1.3-.54,1.96-.78,1.33-.48,2.7-.87,4.09-1.15,1.34-.27,2.7-.43,4.06-.49.71-.03,1.41-.04,2.12-.01.25,0,.5.03.74.03-.18.61-.29,1.26-.53,1.83-.34.8-.77,1.58-1.32,2.25-1.11,1.35-2.61,2.35-4.32,2.73-1.65.36-3.42.02-4.9-.78-.76-.41-1.47-.92-2.08-1.53-.45-.45-.78-.98-1.15-1.49.45-.18.88-.41,1.32-.61Z"/><path class="cls-4" d="M71.15,45.36s0,.02-.02.03c-.04.05-.08.1-.12.15-.03.04-.08.17-.09.22-.05.14-.04.33,0,.47.02.08.06.18.11.25.09.15.23.28.38.37.04.02.08.04.13.06.08.05.17.08.28.13.16.04.33.04.49,0,.12-.03.22-.08.31-.16.19-.15.31-.35.35-.58,0-.02.02-.04.02-.06.05-.16.05-.36,0-.52-.03-.09-.07-.2-.12-.28-.05-.08-.11-.16-.18-.23-.07-.07-.15-.13-.24-.18-.08-.04-.16-.08-.24-.1-.08-.02-.18-.03-.27-.04-.16,0-.31.04-.46.12-.14.08-.24.19-.32.32Z"/><path class="cls-4" d="M81.06,48.73c.09.15.23.28.38.37.04.02.08.04.13.06.08.05.17.08.28.13.16.04.33.04.49,0,.12-.03.22-.08.31-.16.19-.15.31-.35.35-.58,0-.02.02-.04.02-.06.05-.16.05-.36,0-.52-.03-.09-.07-.2-.12-.28-.05-.08-.11-.16-.18-.23-.07-.07-.15-.13-.24-.18-.08-.04-.16-.08-.24-.1-.08-.02-.18-.03-.27-.04-.16,0-.31.04-.46.12-.14.08-.24.19-.32.32,0,.01,0,.02-.02.03-.04.05-.08.1-.12.15-.03.04-.08.17-.09.22-.05.14-.04.33,0,.47.02.08.06.18.11.25Z"/><path class="cls-4" d="M74.85,55.63c.82.43,1.83.3,2.55-.26,1.34-1.04,1.71-3.31,1.07-4.81-.74-1.76-2.93-2.19-4.11-.61-.74,1-1.23,2.93-.68,4.22.12.62.58,1.16,1.17,1.46ZM76.07,50.42c.44-.12.83.24,1.01.6.41.8.21,2.1-.29,2.82-.22.32-.55.58-.97.52-.41-.06-.6-.38-.79-.7-.03-.68-.02-1.34.17-2.03.13-.45.36-1.08.87-1.22Z"/></svg>